<svg width="379" height="114" viewBox="0 0 379 114" fill="none" xmlns="http://www.w3.org/2000/svg">
<path d="M0 20C0 8.9543 8.95431 0 20 0H359C370.046 0 379 8.95431 379 20V114H20C8.9543 114 0 105.046 0 94V20Z" fill="white"/>
<path d="M16.332 35V22.4H17.844V27.962H24.378V22.4H25.89V35H24.378V29.204H17.844V35H16.332ZM32.4728 35.216C31.6208 35.216 30.8648 35.024 30.2048 34.64C29.5448 34.244 29.0228 33.698 28.6388 33.002C28.2668 32.306 28.0808 31.484 28.0808 30.536C28.0808 29.6 28.2668 28.784 28.6388 28.088C29.0108 27.38 29.5268 26.834 30.1868 26.45C30.8588 26.054 31.6328 25.856 32.5088 25.856C33.3728 25.856 34.1168 26.054 34.7408 26.45C35.3768 26.834 35.8628 27.344 36.1988 27.98C36.5348 28.616 36.7028 29.3 36.7028 30.032C36.7028 30.164 36.6968 30.296 36.6848 30.428C36.6848 30.56 36.6848 30.71 36.6848 30.878H29.5748C29.6108 31.562 29.7668 32.132 30.0428 32.588C30.3308 33.032 30.6848 33.368 31.1048 33.596C31.5368 33.824 31.9928 33.938 32.4728 33.938C33.0968 33.938 33.6188 33.794 34.0388 33.506C34.4588 33.218 34.7648 32.828 34.9568 32.336H36.4508C36.2108 33.164 35.7488 33.854 35.0648 34.406C34.3928 34.946 33.5288 35.216 32.4728 35.216ZM32.4728 27.134C31.7528 27.134 31.1108 27.356 30.5468 27.8C29.9948 28.232 29.6768 28.868 29.5928 29.708H35.2088C35.1728 28.904 34.8968 28.274 34.3808 27.818C33.8648 27.362 33.2288 27.134 32.4728 27.134ZM38.7068 35V22.04H40.2188V35H38.7068ZM42.6971 35V22.04H44.2091V35H42.6971ZM50.7553 35.216C49.9153 35.216 49.1593 35.024 48.4873 34.64C47.8153 34.256 47.2813 33.716 46.8853 33.02C46.5013 32.312 46.3093 31.484 46.3093 30.536C46.3093 29.588 46.5073 28.766 46.9033 28.07C47.2993 27.362 47.8333 26.816 48.5053 26.432C49.1893 26.048 49.9513 25.856 50.7913 25.856C51.6313 25.856 52.3873 26.048 53.0593 26.432C53.7313 26.816 54.2593 27.362 54.6433 28.07C55.0393 28.766 55.2373 29.588 55.2373 30.536C55.2373 31.484 55.0393 32.312 54.6433 33.02C54.2473 33.716 53.7073 34.256 53.0233 34.64C52.3513 35.024 51.5953 35.216 50.7553 35.216ZM50.7553 33.92C51.2713 33.92 51.7513 33.794 52.1953 33.542C52.6393 33.29 52.9993 32.912 53.2753 32.408C53.5513 31.904 53.6893 31.28 53.6893 30.536C53.6893 29.792 53.5513 29.168 53.2753 28.664C53.0113 28.16 52.6573 27.782 52.2133 27.53C51.7693 27.278 51.2953 27.152 50.7913 27.152C50.2753 27.152 49.7953 27.278 49.3513 27.53C48.9073 27.782 48.5473 28.16 48.2713 28.664C47.9953 29.168 47.8573 29.792 47.8573 30.536C47.8573 31.28 47.9953 31.904 48.2713 32.408C48.5473 32.912 48.9013 33.29 49.3333 33.542C49.7773 33.794 50.2513 33.92 50.7553 33.92ZM66.2073 35.216C65.2833 35.216 64.4793 35.048 63.7953 34.712C63.1113 34.376 62.5833 33.908 62.2113 33.308C61.8393 32.708 61.6533 32.012 61.6533 31.22H63.2373C63.2373 31.712 63.3513 32.168 63.5793 32.588C63.8073 32.996 64.1373 33.326 64.5693 33.578C65.0133 33.818 65.5593 33.938 66.2073 33.938C67.0593 33.938 67.7193 33.734 68.1873 33.326C68.6553 32.918 68.8893 32.408 68.8893 31.796C68.8893 31.292 68.7813 30.89 68.5653 30.59C68.3493 30.278 68.0553 30.026 67.6833 29.834C67.3233 29.642 66.9033 29.474 66.4233 29.33C65.9553 29.186 65.4633 29.024 64.9473 28.844C63.9753 28.508 63.2553 28.094 62.7873 27.602C62.3193 27.098 62.0853 26.444 62.0853 25.64C62.0733 24.968 62.2293 24.374 62.5533 23.858C62.8773 23.33 63.3333 22.922 63.9213 22.634C64.5213 22.334 65.2293 22.184 66.0453 22.184C66.8493 22.184 67.5453 22.334 68.1333 22.634C68.7333 22.934 69.1953 23.348 69.5193 23.876C69.8553 24.404 70.0293 25.004 70.0413 25.676H68.4573C68.4573 25.328 68.3673 24.986 68.1873 24.65C68.0073 24.302 67.7313 24.02 67.3593 23.804C66.9993 23.588 66.5433 23.48 65.9913 23.48C65.3073 23.468 64.7433 23.642 64.2993 24.002C63.8673 24.362 63.6513 24.86 63.6513 25.496C63.6513 26.036 63.8013 26.45 64.1013 26.738C64.4133 27.026 64.8453 27.266 65.3973 27.458C65.9493 27.638 66.5853 27.848 67.3053 28.088C67.9053 28.304 68.4453 28.556 68.9253 28.844C69.4053 29.132 69.7773 29.504 70.0413 29.96C70.3173 30.416 70.4553 30.998 70.4553 31.706C70.4553 32.306 70.2993 32.876 69.9873 33.416C69.6753 33.944 69.2013 34.376 68.5653 34.712C67.9413 35.048 67.1553 35.216 66.2073 35.216ZM73.4276 24.092C73.1276 24.092 72.8756 23.996 72.6716 23.804C72.4796 23.6 72.3836 23.348 72.3836 23.048C72.3836 22.76 72.4796 22.52 72.6716 22.328C72.8756 22.136 73.1276 22.04 73.4276 22.04C73.7156 22.04 73.9616 22.136 74.1656 22.328C74.3696 22.52 74.4716 22.76 74.4716 23.048C74.4716 23.348 74.3696 23.6 74.1656 23.804C73.9616 23.996 73.7156 24.092 73.4276 24.092ZM72.6716 35V26.072H74.1836V35H72.6716ZM76.8162 35V26.072H78.1842L78.3102 27.782C78.5862 27.194 79.0062 26.726 79.5702 26.378C80.1342 26.03 80.8302 25.856 81.6582 25.856V27.44H81.2442C80.7162 27.44 80.2302 27.536 79.7862 27.728C79.3422 27.908 78.9882 28.22 78.7242 28.664C78.4602 29.108 78.3282 29.72 78.3282 30.5V35H76.8162ZM81.5868 37.142L82.6308 33.164H84.1968L82.6308 37.142H81.5868ZM90.8457 35V22.4H92.3577V35H90.8457ZM102.673 35.216C101.929 35.216 101.311 35.09 100.819 34.838C100.327 34.586 99.9609 34.25 99.7209 33.83C99.4809 33.41 99.3609 32.954 99.3609 32.462C99.3609 31.55 99.7089 30.848 100.405 30.356C101.101 29.864 102.049 29.618 103.249 29.618H105.661V29.51C105.661 28.73 105.457 28.142 105.049 27.746C104.641 27.338 104.095 27.134 103.411 27.134C102.823 27.134 102.313 27.284 101.881 27.584C101.461 27.872 101.197 28.298 101.089 28.862H99.5409C99.6009 28.214 99.8169 27.668 100.189 27.224C100.573 26.78 101.047 26.444 101.611 26.216C102.175 25.976 102.775 25.856 103.411 25.856C104.659 25.856 105.595 26.192 106.219 26.864C106.855 27.524 107.173 28.406 107.173 29.51V35H105.823L105.733 33.398C105.481 33.902 105.109 34.334 104.617 34.694C104.137 35.042 103.489 35.216 102.673 35.216ZM102.907 33.938C103.483 33.938 103.975 33.788 104.383 33.488C104.803 33.188 105.121 32.798 105.337 32.318C105.553 31.838 105.661 31.334 105.661 30.806V30.788H103.375C102.487 30.788 101.857 30.944 101.485 31.256C101.125 31.556 100.945 31.934 100.945 32.39C100.945 32.858 101.113 33.236 101.449 33.524C101.797 33.8 102.283 33.938 102.907 33.938ZM109.441 35V26.072H110.809L110.917 27.368C111.205 26.888 111.589 26.516 112.069 26.252C112.549 25.988 113.089 25.856 113.689 25.856C114.397 25.856 115.003 26 115.507 26.288C116.023 26.576 116.419 27.014 116.695 27.602C117.007 27.062 117.433 26.636 117.973 26.324C118.525 26.012 119.119 25.856 119.755 25.856C120.823 25.856 121.675 26.18 122.311 26.828C122.947 27.464 123.265 28.448 123.265 29.78V35H121.771V29.942C121.771 29.018 121.585 28.322 121.213 27.854C120.841 27.386 120.307 27.152 119.611 27.152C118.891 27.152 118.291 27.434 117.811 27.998C117.343 28.55 117.109 29.342 117.109 30.374V35H115.597V29.942C115.597 29.018 115.411 28.322 115.039 27.854C114.667 27.386 114.133 27.152 113.437 27.152C112.729 27.152 112.135 27.434 111.655 27.998C111.187 28.55 110.953 29.342 110.953 30.374V35H109.441ZM134.95 35.216C134.086 35.216 133.3 35.048 132.592 34.712C131.896 34.364 131.338 33.83 130.918 33.11C130.498 32.39 130.288 31.472 130.288 30.356V22.4H131.8V30.374C131.8 31.598 132.094 32.486 132.682 33.038C133.27 33.59 134.038 33.866 134.986 33.866C135.934 33.866 136.696 33.59 137.272 33.038C137.848 32.486 138.136 31.598 138.136 30.374V22.4H139.648V30.356C139.648 31.472 139.438 32.39 139.018 33.11C138.598 33.83 138.034 34.364 137.326 34.712C136.618 35.048 135.826 35.216 134.95 35.216ZM142.119 35V22.04H143.631V29.834L147.285 26.072H149.139L145.179 30.104L149.643 35H147.717L143.631 30.374V35H142.119ZM151.189 38.96V26.072H152.557L152.701 27.548C152.989 27.116 153.397 26.726 153.925 26.378C154.465 26.03 155.149 25.856 155.977 25.856C156.865 25.856 157.639 26.06 158.299 26.468C158.959 26.876 159.469 27.434 159.829 28.142C160.201 28.85 160.387 29.654 160.387 30.554C160.387 31.454 160.201 32.258 159.829 32.966C159.469 33.662 158.953 34.214 158.281 34.622C157.621 35.018 156.847 35.216 155.959 35.216C155.227 35.216 154.573 35.066 153.997 34.766C153.433 34.466 153.001 34.046 152.701 33.506V38.96H151.189ZM155.797 33.902C156.397 33.902 156.925 33.764 157.381 33.488C157.837 33.2 158.197 32.804 158.461 32.3C158.725 31.796 158.857 31.208 158.857 30.536C158.857 29.864 158.725 29.276 158.461 28.772C158.197 28.268 157.837 27.878 157.381 27.602C156.925 27.314 156.397 27.17 155.797 27.17C155.197 27.17 154.669 27.314 154.213 27.602C153.757 27.878 153.397 28.268 153.133 28.772C152.869 29.276 152.737 29.864 152.737 30.536C152.737 31.208 152.869 31.796 153.133 32.3C153.397 32.804 153.757 33.2 154.213 33.488C154.669 33.764 155.197 33.902 155.797 33.902ZM166.56 35.216C165.72 35.216 164.964 35.024 164.292 34.64C163.62 34.256 163.086 33.716 162.69 33.02C162.306 32.312 162.114 31.484 162.114 30.536C162.114 29.588 162.312 28.766 162.708 28.07C163.104 27.362 163.638 26.816 164.31 26.432C164.994 26.048 165.756 25.856 166.596 25.856C167.436 25.856 168.192 26.048 168.864 26.432C169.536 26.816 170.064 27.362 170.448 28.07C170.844 28.766 171.042 29.588 171.042 30.536C171.042 31.484 170.844 32.312 170.448 33.02C170.052 33.716 169.512 34.256 168.828 34.64C168.156 35.024 167.4 35.216 166.56 35.216ZM166.56 33.92C167.076 33.92 167.556 33.794 168 33.542C168.444 33.29 168.804 32.912 169.08 32.408C169.356 31.904 169.494 31.28 169.494 30.536C169.494 29.792 169.356 29.168 169.08 28.664C168.816 28.16 168.462 27.782 168.018 27.53C167.574 27.278 167.1 27.152 166.596 27.152C166.08 27.152 165.6 27.278 165.156 27.53C164.712 27.782 164.352 28.16 164.076 28.664C163.8 29.168 163.662 29.792 163.662 30.536C163.662 31.28 163.8 31.904 164.076 32.408C164.352 32.912 164.706 33.29 165.138 33.542C165.582 33.794 166.056 33.92 166.56 33.92ZM173.144 35V26.072H174.512L174.602 27.674C174.89 27.11 175.304 26.666 175.844 26.342C176.384 26.018 176.996 25.856 177.68 25.856C178.736 25.856 179.576 26.18 180.2 26.828C180.836 27.464 181.154 28.448 181.154 29.78V35H179.642V29.942C179.642 28.082 178.874 27.152 177.338 27.152C176.57 27.152 175.928 27.434 175.412 27.998C174.908 28.55 174.656 29.342 174.656 30.374V35H173.144ZM187.513 35.216C186.673 35.216 185.917 35.024 185.245 34.64C184.573 34.256 184.039 33.716 183.643 33.02C183.259 32.312 183.067 31.484 183.067 30.536C183.067 29.588 183.265 28.766 183.661 28.07C184.057 27.362 184.591 26.816 185.263 26.432C185.947 26.048 186.709 25.856 187.549 25.856C188.389 25.856 189.145 26.048 189.817 26.432C190.489 26.816 191.017 27.362 191.401 28.07C191.797 28.766 191.995 29.588 191.995 30.536C191.995 31.484 191.797 32.312 191.401 33.02C191.005 33.716 190.465 34.256 189.781 34.64C189.109 35.024 188.353 35.216 187.513 35.216ZM187.513 33.92C188.029 33.92 188.509 33.794 188.953 33.542C189.397 33.29 189.757 32.912 190.033 32.408C190.309 31.904 190.447 31.28 190.447 30.536C190.447 29.792 190.309 29.168 190.033 28.664C189.769 28.16 189.415 27.782 188.971 27.53C188.527 27.278 188.053 27.152 187.549 27.152C187.033 27.152 186.553 27.278 186.109 27.53C185.665 27.782 185.305 28.16 185.029 28.664C184.753 29.168 184.615 29.792 184.615 30.536C184.615 31.28 184.753 31.904 185.029 32.408C185.305 32.912 185.659 33.29 186.091 33.542C186.535 33.794 187.009 33.92 187.513 33.92ZM201.831 35.216C201.087 35.216 200.469 35.09 199.977 34.838C199.485 34.586 199.119 34.25 198.879 33.83C198.639 33.41 198.519 32.954 198.519 32.462C198.519 31.55 198.867 30.848 199.563 30.356C200.259 29.864 201.207 29.618 202.407 29.618H204.819V29.51C204.819 28.73 204.615 28.142 204.207 27.746C203.799 27.338 203.253 27.134 202.569 27.134C201.981 27.134 201.471 27.284 201.039 27.584C200.619 27.872 200.355 28.298 200.247 28.862H198.699C198.759 28.214 198.975 27.668 199.347 27.224C199.731 26.78 200.205 26.444 200.769 26.216C201.333 25.976 201.933 25.856 202.569 25.856C203.817 25.856 204.753 26.192 205.377 26.864C206.013 27.524 206.331 28.406 206.331 29.51V35H204.981L204.891 33.398C204.639 33.902 204.267 34.334 203.775 34.694C203.295 35.042 202.647 35.216 201.831 35.216ZM202.065 33.938C202.641 33.938 203.133 33.788 203.541 33.488C203.961 33.188 204.279 32.798 204.495 32.318C204.711 31.838 204.819 31.334 204.819 30.806V30.788H202.533C201.645 30.788 201.015 30.944 200.643 31.256C200.283 31.556 200.103 31.934 200.103 32.39C200.103 32.858 200.271 33.236 200.607 33.524C200.955 33.8 201.441 33.938 202.065 33.938ZM213.453 35V22.4H217.881C218.769 22.4 219.501 22.544 220.077 22.832C220.665 23.108 221.103 23.492 221.391 23.984C221.679 24.464 221.823 25.004 221.823 25.604C221.823 26.42 221.601 27.062 221.157 27.53C220.725 27.998 220.203 28.322 219.591 28.502C220.059 28.586 220.485 28.772 220.869 29.06C221.253 29.348 221.553 29.708 221.769 30.14C221.997 30.572 222.111 31.046 222.111 31.562C222.111 32.198 221.955 32.78 221.643 33.308C221.331 33.824 220.869 34.238 220.257 34.55C219.645 34.85 218.901 35 218.025 35H213.453ZM214.965 27.908H217.773C218.577 27.908 219.195 27.722 219.627 27.35C220.059 26.966 220.275 26.438 220.275 25.766C220.275 25.13 220.059 24.62 219.627 24.236C219.207 23.852 218.571 23.66 217.719 23.66H214.965V27.908ZM214.965 33.74H217.863C218.727 33.74 219.393 33.542 219.861 33.146C220.329 32.738 220.563 32.174 220.563 31.454C220.563 30.746 220.317 30.182 219.825 29.762C219.333 29.33 218.667 29.114 217.827 29.114H214.965V33.74ZM224.191 35V26.072H225.559L225.685 27.782C225.961 27.194 226.381 26.726 226.945 26.378C227.509 26.03 228.205 25.856 229.033 25.856V27.44H228.619C228.091 27.44 227.605 27.536 227.161 27.728C226.717 27.908 226.363 28.22 226.099 28.664C225.835 29.108 225.703 29.72 225.703 30.5V35H224.191ZM233.7 35.216C232.956 35.216 232.338 35.09 231.846 34.838C231.354 34.586 230.988 34.25 230.748 33.83C230.508 33.41 230.388 32.954 230.388 32.462C230.388 31.55 230.736 30.848 231.432 30.356C232.128 29.864 233.076 29.618 234.276 29.618H236.688V29.51C236.688 28.73 236.484 28.142 236.076 27.746C235.668 27.338 235.122 27.134 234.438 27.134C233.85 27.134 233.34 27.284 232.908 27.584C232.488 27.872 232.224 28.298 232.116 28.862H230.568C230.628 28.214 230.844 27.668 231.216 27.224C231.6 26.78 232.074 26.444 232.638 26.216C233.202 25.976 233.802 25.856 234.438 25.856C235.686 25.856 236.622 26.192 237.246 26.864C237.882 27.524 238.2 28.406 238.2 29.51V35H236.85L236.76 33.398C236.508 33.902 236.136 34.334 235.644 34.694C235.164 35.042 234.516 35.216 233.7 35.216ZM233.934 33.938C234.51 33.938 235.002 33.788 235.41 33.488C235.83 33.188 236.148 32.798 236.364 32.318C236.58 31.838 236.688 31.334 236.688 30.806V30.788H234.402C233.514 30.788 232.884 30.944 232.512 31.256C232.152 31.556 231.972 31.934 231.972 32.39C231.972 32.858 232.14 33.236 232.476 33.524C232.824 33.8 233.31 33.938 233.934 33.938ZM240.469 35V26.072H241.837L241.927 27.674C242.215 27.11 242.629 26.666 243.169 26.342C243.709 26.018 244.321 25.856 245.005 25.856C246.061 25.856 246.901 26.18 247.525 26.828C248.161 27.464 248.479 28.448 248.479 29.78V35H246.967V29.942C246.967 28.082 246.199 27.152 244.663 27.152C243.895 27.152 243.253 27.434 242.737 27.998C242.233 28.55 241.981 29.342 241.981 30.374V35H240.469ZM254.819 35.216C253.931 35.216 253.151 35.012 252.479 34.604C251.819 34.196 251.303 33.638 250.931 32.93C250.571 32.222 250.391 31.418 250.391 30.518C250.391 29.618 250.577 28.82 250.949 28.124C251.321 27.416 251.837 26.864 252.497 26.468C253.157 26.06 253.937 25.856 254.837 25.856C255.569 25.856 256.217 26.006 256.781 26.306C257.345 26.606 257.783 27.026 258.095 27.566V22.04H259.607V35H258.239L258.095 33.524C257.807 33.956 257.393 34.346 256.853 34.694C256.313 35.042 255.635 35.216 254.819 35.216ZM254.981 33.902C255.581 33.902 256.109 33.764 256.565 33.488C257.033 33.2 257.393 32.804 257.645 32.3C257.909 31.796 258.041 31.208 258.041 30.536C258.041 29.864 257.909 29.276 257.645 28.772C257.393 28.268 257.033 27.878 256.565 27.602C256.109 27.314 255.581 27.17 254.981 27.17C254.393 27.17 253.865 27.314 253.397 27.602C252.941 27.878 252.581 28.268 252.317 28.772C252.065 29.276 251.939 29.864 251.939 30.536C251.939 31.208 252.065 31.796 252.317 32.3C252.581 32.804 252.941 33.2 253.397 33.488C253.865 33.764 254.393 33.902 254.981 33.902ZM270.94 35.216C270.016 35.216 269.212 35.048 268.528 34.712C267.844 34.376 267.316 33.908 266.944 33.308C266.572 32.708 266.386 32.012 266.386 31.22H267.97C267.97 31.712 268.084 32.168 268.312 32.588C268.54 32.996 268.87 33.326 269.302 33.578C269.746 33.818 270.292 33.938 270.94 33.938C271.792 33.938 272.452 33.734 272.92 33.326C273.388 32.918 273.622 32.408 273.622 31.796C273.622 31.292 273.514 30.89 273.298 30.59C273.082 30.278 272.788 30.026 272.416 29.834C272.056 29.642 271.636 29.474 271.156 29.33C270.688 29.186 270.196 29.024 269.68 28.844C268.708 28.508 267.988 28.094 267.52 27.602C267.052 27.098 266.818 26.444 266.818 25.64C266.806 24.968 266.962 24.374 267.286 23.858C267.61 23.33 268.066 22.922 268.654 22.634C269.254 22.334 269.962 22.184 270.778 22.184C271.582 22.184 272.278 22.334 272.866 22.634C273.466 22.934 273.928 23.348 274.252 23.876C274.588 24.404 274.762 25.004 274.774 25.676H273.19C273.19 25.328 273.1 24.986 272.92 24.65C272.74 24.302 272.464 24.02 272.092 23.804C271.732 23.588 271.276 23.48 270.724 23.48C270.04 23.468 269.476 23.642 269.032 24.002C268.6 24.362 268.384 24.86 268.384 25.496C268.384 26.036 268.534 26.45 268.834 26.738C269.146 27.026 269.578 27.266 270.13 27.458C270.682 27.638 271.318 27.848 272.038 28.088C272.638 28.304 273.178 28.556 273.658 28.844C274.138 29.132 274.51 29.504 274.774 29.96C275.05 30.416 275.188 30.998 275.188 31.706C275.188 32.306 275.032 32.876 274.72 33.416C274.408 33.944 273.934 34.376 273.298 34.712C272.674 35.048 271.888 35.216 270.94 35.216ZM280.77 35C279.954 35 279.312 34.802 278.844 34.406C278.376 34.01 278.142 33.296 278.142 32.264V27.35H276.594V26.072H278.142L278.34 23.93H279.654V26.072H282.282V27.35H279.654V32.264C279.654 32.828 279.768 33.212 279.996 33.416C280.224 33.608 280.626 33.704 281.202 33.704H282.138V35H280.77ZM284.203 35V26.072H285.571L285.697 27.782C285.973 27.194 286.393 26.726 286.957 26.378C287.521 26.03 288.217 25.856 289.045 25.856V27.44H288.631C288.103 27.44 287.617 27.536 287.173 27.728C286.729 27.908 286.375 28.22 286.111 28.664C285.847 29.108 285.715 29.72 285.715 30.5V35H284.203ZM293.712 35.216C292.968 35.216 292.35 35.09 291.858 34.838C291.366 34.586 291 34.25 290.76 33.83C290.52 33.41 290.4 32.954 290.4 32.462C290.4 31.55 290.748 30.848 291.444 30.356C292.14 29.864 293.088 29.618 294.288 29.618H296.7V29.51C296.7 28.73 296.496 28.142 296.088 27.746C295.68 27.338 295.134 27.134 294.45 27.134C293.862 27.134 293.352 27.284 292.92 27.584C292.5 27.872 292.236 28.298 292.128 28.862H290.58C290.64 28.214 290.856 27.668 291.228 27.224C291.612 26.78 292.086 26.444 292.65 26.216C293.214 25.976 293.814 25.856 294.45 25.856C295.698 25.856 296.634 26.192 297.258 26.864C297.894 27.524 298.212 28.406 298.212 29.51V35H296.862L296.772 33.398C296.52 33.902 296.148 34.334 295.656 34.694C295.176 35.042 294.528 35.216 293.712 35.216ZM293.946 33.938C294.522 33.938 295.014 33.788 295.422 33.488C295.842 33.188 296.16 32.798 296.376 32.318C296.592 31.838 296.7 31.334 296.7 30.806V30.788H294.414C293.526 30.788 292.896 30.944 292.524 31.256C292.164 31.556 291.984 31.934 291.984 32.39C291.984 32.858 292.152 33.236 292.488 33.524C292.836 33.8 293.322 33.938 293.946 33.938ZM303.762 35C302.946 35 302.304 34.802 301.836 34.406C301.368 34.01 301.134 33.296 301.134 32.264V27.35H299.586V26.072H301.134L301.332 23.93H302.646V26.072H305.274V27.35H302.646V32.264C302.646 32.828 302.76 33.212 302.988 33.416C303.216 33.608 303.618 33.704 304.194 33.704H305.13V35H303.762ZM310.963 35.216C310.111 35.216 309.355 35.024 308.695 34.64C308.035 34.244 307.513 33.698 307.129 33.002C306.757 32.306 306.571 31.484 306.571 30.536C306.571 29.6 306.757 28.784 307.129 28.088C307.501 27.38 308.017 26.834 308.677 26.45C309.349 26.054 310.123 25.856 310.999 25.856C311.863 25.856 312.607 26.054 313.231 26.45C313.867 26.834 314.353 27.344 314.689 27.98C315.025 28.616 315.193 29.3 315.193 30.032C315.193 30.164 315.187 30.296 315.175 30.428C315.175 30.56 315.175 30.71 315.175 30.878H308.065C308.101 31.562 308.257 32.132 308.533 32.588C308.821 33.032 309.175 33.368 309.595 33.596C310.027 33.824 310.483 33.938 310.963 33.938C311.587 33.938 312.109 33.794 312.529 33.506C312.949 33.218 313.255 32.828 313.447 32.336H314.941C314.701 33.164 314.239 33.854 313.555 34.406C312.883 34.946 312.019 35.216 310.963 35.216ZM310.963 27.134C310.243 27.134 309.601 27.356 309.037 27.8C308.485 28.232 308.167 28.868 308.083 29.708H313.699C313.663 28.904 313.387 28.274 312.871 27.818C312.355 27.362 311.719 27.134 310.963 27.134ZM320.672 32.192C320.168 32.192 319.706 32.126 319.286 31.994L318.386 32.84C318.518 32.936 318.68 33.02 318.872 33.092C319.076 33.152 319.364 33.212 319.736 33.272C320.108 33.32 320.63 33.374 321.302 33.434C322.502 33.518 323.36 33.794 323.876 34.262C324.392 34.73 324.65 35.342 324.65 36.098C324.65 36.614 324.506 37.106 324.218 37.574C323.942 38.042 323.51 38.426 322.922 38.726C322.346 39.026 321.602 39.176 320.69 39.176C319.886 39.176 319.172 39.068 318.548 38.852C317.924 38.648 317.438 38.33 317.09 37.898C316.742 37.478 316.568 36.944 316.568 36.296C316.568 35.96 316.658 35.594 316.838 35.198C317.018 34.814 317.354 34.448 317.846 34.1C317.582 33.992 317.354 33.878 317.162 33.758C316.982 33.626 316.814 33.482 316.658 33.326V32.912L318.188 31.4C317.48 30.8 317.126 30.008 317.126 29.024C317.126 28.436 317.264 27.902 317.54 27.422C317.816 26.942 318.218 26.564 318.746 26.288C319.274 26 319.916 25.856 320.672 25.856C321.188 25.856 321.656 25.928 322.076 26.072H325.37V27.206L323.696 27.278C324.044 27.782 324.218 28.364 324.218 29.024C324.218 29.612 324.074 30.146 323.786 30.626C323.51 31.106 323.108 31.49 322.58 31.778C322.064 32.054 321.428 32.192 320.672 32.192ZM320.672 30.95C321.308 30.95 321.812 30.788 322.184 30.464C322.568 30.128 322.76 29.648 322.76 29.024C322.76 28.412 322.568 27.944 322.184 27.62C321.812 27.284 321.308 27.116 320.672 27.116C320.024 27.116 319.508 27.284 319.124 27.62C318.752 27.944 318.566 28.412 318.566 29.024C318.566 29.648 318.752 30.128 319.124 30.464C319.508 30.788 320.024 30.95 320.672 30.95ZM318.044 36.152C318.044 36.752 318.296 37.196 318.8 37.484C319.304 37.784 319.934 37.934 320.69 37.934C321.434 37.934 322.028 37.772 322.472 37.448C322.928 37.124 323.156 36.692 323.156 36.152C323.156 35.768 323 35.432 322.688 35.144C322.376 34.868 321.8 34.706 320.96 34.658C320.3 34.61 319.73 34.55 319.25 34.478C318.758 34.742 318.434 35.024 318.278 35.324C318.122 35.636 318.044 35.912 318.044 36.152ZM327.994 24.092C327.694 24.092 327.442 23.996 327.238 23.804C327.046 23.6 326.95 23.348 326.95 23.048C326.95 22.76 327.046 22.52 327.238 22.328C327.442 22.136 327.694 22.04 327.994 22.04C328.282 22.04 328.528 22.136 328.732 22.328C328.936 22.52 329.038 22.76 329.038 23.048C329.038 23.348 328.936 23.6 328.732 23.804C328.528 23.996 328.282 24.092 327.994 24.092ZM327.238 35V26.072H328.75V35H327.238ZM334.803 35.216C333.735 35.216 332.847 34.946 332.139 34.406C331.431 33.866 331.017 33.134 330.897 32.21H332.445C332.541 32.678 332.787 33.086 333.183 33.434C333.591 33.77 334.137 33.938 334.821 33.938C335.457 33.938 335.925 33.806 336.225 33.542C336.525 33.266 336.675 32.942 336.675 32.57C336.675 32.03 336.477 31.67 336.081 31.49C335.697 31.31 335.151 31.148 334.443 31.004C333.963 30.908 333.483 30.77 333.003 30.59C332.523 30.41 332.121 30.158 331.797 29.834C331.473 29.498 331.311 29.06 331.311 28.52C331.311 27.74 331.599 27.104 332.175 26.612C332.763 26.108 333.555 25.856 334.551 25.856C335.499 25.856 336.273 26.096 336.873 26.576C337.485 27.044 337.839 27.716 337.935 28.592H336.441C336.381 28.136 336.183 27.782 335.847 27.53C335.523 27.266 335.085 27.134 334.533 27.134C333.993 27.134 333.573 27.248 333.273 27.476C332.985 27.704 332.841 28.004 332.841 28.376C332.841 28.736 333.027 29.018 333.399 29.222C333.783 29.426 334.299 29.6 334.947 29.744C335.499 29.864 336.021 30.014 336.513 30.194C337.017 30.362 337.425 30.62 337.737 30.968C338.061 31.304 338.223 31.796 338.223 32.444C338.235 33.248 337.929 33.914 337.305 34.442C336.693 34.958 335.859 35.216 334.803 35.216ZM343.506 35C342.69 35 342.048 34.802 341.58 34.406C341.112 34.01 340.878 33.296 340.878 32.264V27.35H339.33V26.072H340.878L341.076 23.93H342.39V26.072H345.018V27.35H342.39V32.264C342.39 32.828 342.504 33.212 342.732 33.416C342.96 33.608 343.362 33.704 343.938 33.704H344.874V35H343.506ZM19.212 62.216C18.468 62.216 17.85 62.09 17.358 61.838C16.866 61.586 16.5 61.25 16.26 60.83C16.02 60.41 15.9 59.954 15.9 59.462C15.9 58.55 16.248 57.848 16.944 57.356C17.64 56.864 18.588 56.618 19.788 56.618H22.2V56.51C22.2 55.73 21.996 55.142 21.588 54.746C21.18 54.338 20.634 54.134 19.95 54.134C19.362 54.134 18.852 54.284 18.42 54.584C18 54.872 17.736 55.298 17.628 55.862H16.08C16.14 55.214 16.356 54.668 16.728 54.224C17.112 53.78 17.586 53.444 18.15 53.216C18.714 52.976 19.314 52.856 19.95 52.856C21.198 52.856 22.134 53.192 22.758 53.864C23.394 54.524 23.712 55.406 23.712 56.51V62H22.362L22.272 60.398C22.02 60.902 21.648 61.334 21.156 61.694C20.676 62.042 20.028 62.216 19.212 62.216ZM19.446 60.938C20.022 60.938 20.514 60.788 20.922 60.488C21.342 60.188 21.66 59.798 21.876 59.318C22.092 58.838 22.2 58.334 22.2 57.806V57.788H19.914C19.026 57.788 18.396 57.944 18.024 58.256C17.664 58.556 17.484 58.934 17.484 59.39C17.484 59.858 17.652 60.236 17.988 60.524C18.336 60.8 18.822 60.938 19.446 60.938ZM25.9803 62V53.072H27.3483L27.4383 54.674C27.7263 54.11 28.1403 53.666 28.6803 53.342C29.2203 53.018 29.8323 52.856 30.5163 52.856C31.5723 52.856 32.4123 53.18 33.0363 53.828C33.6723 54.464 33.9903 55.448 33.9903 56.78V62H32.4783V56.942C32.4783 55.082 31.7103 54.152 30.1743 54.152C29.4063 54.152 28.7643 54.434 28.2483 54.998C27.7443 55.55 27.4923 56.342 27.4923 57.374V62H25.9803ZM40.3311 62.216C39.4431 62.216 38.6631 62.012 37.9911 61.604C37.3311 61.196 36.8151 60.638 36.4431 59.93C36.0831 59.222 35.9031 58.418 35.9031 57.518C35.9031 56.618 36.0891 55.82 36.4611 55.124C36.8331 54.416 37.3491 53.864 38.0091 53.468C38.6691 53.06 39.4491 52.856 40.3491 52.856C41.0811 52.856 41.7291 53.006 42.2931 53.306C42.8571 53.606 43.2951 54.026 43.6071 54.566V49.04H45.1191V62H43.7511L43.6071 60.524C43.3191 60.956 42.9051 61.346 42.3651 61.694C41.8251 62.042 41.1471 62.216 40.3311 62.216ZM40.4931 60.902C41.0931 60.902 41.6211 60.764 42.0771 60.488C42.5451 60.2 42.9051 59.804 43.1571 59.3C43.4211 58.796 43.5531 58.208 43.5531 57.536C43.5531 56.864 43.4211 56.276 43.1571 55.772C42.9051 55.268 42.5451 54.878 42.0771 54.602C41.6211 54.314 41.0931 54.17 40.4931 54.17C39.9051 54.17 39.3771 54.314 38.9091 54.602C38.4531 54.878 38.0931 55.268 37.8291 55.772C37.5771 56.276 37.4511 56.864 37.4511 57.536C37.4511 58.208 37.5771 58.796 37.8291 59.3C38.0931 59.804 38.4531 60.2 38.9091 60.488C39.3771 60.764 39.9051 60.902 40.4931 60.902ZM52.4375 62V49.4H53.9495V62H52.4375ZM64.5527 62.216C63.4967 62.216 62.6567 61.898 62.0327 61.262C61.4087 60.614 61.0967 59.624 61.0967 58.292V53.072H62.6087V58.13C62.6087 59.99 63.3707 60.92 64.8947 60.92C65.6747 60.92 66.3167 60.644 66.8207 60.092C67.3367 59.528 67.5947 58.73 67.5947 57.698V53.072H69.1067V62H67.7387L67.6307 60.398C67.3547 60.962 66.9407 61.406 66.3887 61.73C65.8487 62.054 65.2367 62.216 64.5527 62.216ZM75.0155 62.216C73.9475 62.216 73.0595 61.946 72.3515 61.406C71.6435 60.866 71.2295 60.134 71.1095 59.21H72.6575C72.7535 59.678 72.9995 60.086 73.3955 60.434C73.8035 60.77 74.3495 60.938 75.0335 60.938C75.6695 60.938 76.1375 60.806 76.4375 60.542C76.7375 60.266 76.8875 59.942 76.8875 59.57C76.8875 59.03 76.6895 58.67 76.2935 58.49C75.9095 58.31 75.3635 58.148 74.6555 58.004C74.1755 57.908 73.6955 57.77 73.2155 57.59C72.7355 57.41 72.3335 57.158 72.0095 56.834C71.6855 56.498 71.5235 56.06 71.5235 55.52C71.5235 54.74 71.8115 54.104 72.3875 53.612C72.9755 53.108 73.7675 52.856 74.7635 52.856C75.7115 52.856 76.4855 53.096 77.0855 53.576C77.6975 54.044 78.0515 54.716 78.1475 55.592H76.6535C76.5935 55.136 76.3955 54.782 76.0595 54.53C75.7355 54.266 75.2975 54.134 74.7455 54.134C74.2055 54.134 73.7855 54.248 73.4855 54.476C73.1975 54.704 73.0535 55.004 73.0535 55.376C73.0535 55.736 73.2395 56.018 73.6115 56.222C73.9955 56.426 74.5115 56.6 75.1595 56.744C75.7115 56.864 76.2335 57.014 76.7255 57.194C77.2295 57.362 77.6375 57.62 77.9495 57.968C78.2735 58.304 78.4355 58.796 78.4355 59.444C78.4475 60.248 78.1415 60.914 77.5175 61.442C76.9055 61.958 76.0715 62.216 75.0155 62.216ZM84.6095 62.216C83.7575 62.216 83.0015 62.024 82.3415 61.64C81.6815 61.244 81.1595 60.698 80.7755 60.002C80.4035 59.306 80.2175 58.484 80.2175 57.536C80.2175 56.6 80.4035 55.784 80.7755 55.088C81.1475 54.38 81.6635 53.834 82.3235 53.45C82.9955 53.054 83.7695 52.856 84.6455 52.856C85.5095 52.856 86.2535 53.054 86.8775 53.45C87.5135 53.834 87.9995 54.344 88.3355 54.98C88.6715 55.616 88.8395 56.3 88.8395 57.032C88.8395 57.164 88.8335 57.296 88.8215 57.428C88.8215 57.56 88.8215 57.71 88.8215 57.878H81.7115C81.7475 58.562 81.9035 59.132 82.1795 59.588C82.4675 60.032 82.8215 60.368 83.2415 60.596C83.6735 60.824 84.1295 60.938 84.6095 60.938C85.2335 60.938 85.7555 60.794 86.1755 60.506C86.5955 60.218 86.9015 59.828 87.0935 59.336H88.5875C88.3475 60.164 87.8855 60.854 87.2015 61.406C86.5295 61.946 85.6655 62.216 84.6095 62.216ZM84.6095 54.134C83.8895 54.134 83.2475 54.356 82.6835 54.8C82.1315 55.232 81.8135 55.868 81.7295 56.708H87.3455C87.3095 55.904 87.0335 55.274 86.5175 54.818C86.0015 54.362 85.3655 54.134 84.6095 54.134ZM95.6072 62V53.072H96.9752L97.0832 54.368C97.3712 53.888 97.7552 53.516 98.2352 53.252C98.7152 52.988 99.2552 52.856 99.8552 52.856C100.563 52.856 101.169 53 101.673 53.288C102.189 53.576 102.585 54.014 102.861 54.602C103.173 54.062 103.599 53.636 104.139 53.324C104.691 53.012 105.285 52.856 105.921 52.856C106.989 52.856 107.841 53.18 108.477 53.828C109.113 54.464 109.431 55.448 109.431 56.78V62H107.937V56.942C107.937 56.018 107.751 55.322 107.379 54.854C107.007 54.386 106.473 54.152 105.777 54.152C105.057 54.152 104.457 54.434 103.977 54.998C103.509 55.55 103.275 56.342 103.275 57.374V62H101.763V56.942C101.763 56.018 101.577 55.322 101.205 54.854C100.833 54.386 100.299 54.152 99.6032 54.152C98.8952 54.152 98.3012 54.434 97.8212 54.998C97.3532 55.55 97.1192 56.342 97.1192 57.374V62H95.6072ZM112.417 65.96L114.631 61.136H114.109L110.563 53.072H112.201L115.153 60.02L118.285 53.072H119.851L114.001 65.96H112.417ZM130.261 62.216C129.373 62.216 128.593 62.012 127.921 61.604C127.261 61.196 126.745 60.638 126.373 59.93C126.013 59.222 125.833 58.418 125.833 57.518C125.833 56.618 126.019 55.82 126.391 55.124C126.763 54.416 127.279 53.864 127.939 53.468C128.599 53.06 129.379 52.856 130.279 52.856C131.011 52.856 131.659 53.006 132.223 53.306C132.787 53.606 133.225 54.026 133.537 54.566V49.04H135.049V62H133.681L133.537 60.524C133.249 60.956 132.835 61.346 132.295 61.694C131.755 62.042 131.077 62.216 130.261 62.216ZM130.423 60.902C131.023 60.902 131.551 60.764 132.007 60.488C132.475 60.2 132.835 59.804 133.087 59.3C133.351 58.796 133.483 58.208 133.483 57.536C133.483 56.864 133.351 56.276 133.087 55.772C132.835 55.268 132.475 54.878 132.007 54.602C131.551 54.314 131.023 54.17 130.423 54.17C129.835 54.17 129.307 54.314 128.839 54.602C128.383 54.878 128.023 55.268 127.759 55.772C127.507 56.276 127.381 56.864 127.381 57.536C127.381 58.208 127.507 58.796 127.759 59.3C128.023 59.804 128.383 60.2 128.839 60.488C129.307 60.764 129.835 60.902 130.423 60.902ZM141.527 62.216C140.675 62.216 139.919 62.024 139.259 61.64C138.599 61.244 138.077 60.698 137.693 60.002C137.321 59.306 137.135 58.484 137.135 57.536C137.135 56.6 137.321 55.784 137.693 55.088C138.065 54.38 138.581 53.834 139.241 53.45C139.913 53.054 140.687 52.856 141.563 52.856C142.427 52.856 143.171 53.054 143.795 53.45C144.431 53.834 144.917 54.344 145.253 54.98C145.589 55.616 145.757 56.3 145.757 57.032C145.757 57.164 145.751 57.296 145.739 57.428C145.739 57.56 145.739 57.71 145.739 57.878H138.629C138.665 58.562 138.821 59.132 139.097 59.588C139.385 60.032 139.739 60.368 140.159 60.596C140.591 60.824 141.047 60.938 141.527 60.938C142.151 60.938 142.673 60.794 143.093 60.506C143.513 60.218 143.819 59.828 144.011 59.336H145.505C145.265 60.164 144.803 60.854 144.119 61.406C143.447 61.946 142.583 62.216 141.527 62.216ZM141.527 54.134C140.807 54.134 140.165 54.356 139.601 54.8C139.049 55.232 138.731 55.868 138.647 56.708H144.263C144.227 55.904 143.951 55.274 143.435 54.818C142.919 54.362 142.283 54.134 141.527 54.134ZM151.182 62.216C150.114 62.216 149.226 61.946 148.518 61.406C147.81 60.866 147.396 60.134 147.276 59.21H148.824C148.92 59.678 149.166 60.086 149.562 60.434C149.97 60.77 150.516 60.938 151.2 60.938C151.836 60.938 152.304 60.806 152.604 60.542C152.904 60.266 153.054 59.942 153.054 59.57C153.054 59.03 152.856 58.67 152.46 58.49C152.076 58.31 151.53 58.148 150.822 58.004C150.342 57.908 149.862 57.77 149.382 57.59C148.902 57.41 148.5 57.158 148.176 56.834C147.852 56.498 147.69 56.06 147.69 55.52C147.69 54.74 147.978 54.104 148.554 53.612C149.142 53.108 149.934 52.856 150.93 52.856C151.878 52.856 152.652 53.096 153.252 53.576C153.864 54.044 154.218 54.716 154.314 55.592H152.82C152.76 55.136 152.562 54.782 152.226 54.53C151.902 54.266 151.464 54.134 150.912 54.134C150.372 54.134 149.952 54.248 149.652 54.476C149.364 54.704 149.22 55.004 149.22 55.376C149.22 55.736 149.406 56.018 149.778 56.222C150.162 56.426 150.678 56.6 151.326 56.744C151.878 56.864 152.4 57.014 152.892 57.194C153.396 57.362 153.804 57.62 154.116 57.968C154.44 58.304 154.602 58.796 154.602 59.444C154.614 60.248 154.308 60.914 153.684 61.442C153.072 61.958 152.238 62.216 151.182 62.216ZM157.68 51.092C157.38 51.092 157.128 50.996 156.924 50.804C156.732 50.6 156.636 50.348 156.636 50.048C156.636 49.76 156.732 49.52 156.924 49.328C157.128 49.136 157.38 49.04 157.68 49.04C157.968 49.04 158.214 49.136 158.418 49.328C158.622 49.52 158.724 49.76 158.724 50.048C158.724 50.348 158.622 50.6 158.418 50.804C158.214 50.996 157.968 51.092 157.68 51.092ZM156.924 62V53.072H158.436V62H156.924ZM164.596 59.192C164.092 59.192 163.63 59.126 163.21 58.994L162.31 59.84C162.442 59.936 162.604 60.02 162.796 60.092C163 60.152 163.288 60.212 163.66 60.272C164.032 60.32 164.554 60.374 165.226 60.434C166.426 60.518 167.284 60.794 167.8 61.262C168.316 61.73 168.574 62.342 168.574 63.098C168.574 63.614 168.43 64.106 168.142 64.574C167.866 65.042 167.434 65.426 166.846 65.726C166.27 66.026 165.526 66.176 164.614 66.176C163.81 66.176 163.096 66.068 162.472 65.852C161.848 65.648 161.362 65.33 161.014 64.898C160.666 64.478 160.492 63.944 160.492 63.296C160.492 62.96 160.582 62.594 160.762 62.198C160.942 61.814 161.278 61.448 161.77 61.1C161.506 60.992 161.278 60.878 161.086 60.758C160.906 60.626 160.738 60.482 160.582 60.326V59.912L162.112 58.4C161.404 57.8 161.05 57.008 161.05 56.024C161.05 55.436 161.188 54.902 161.464 54.422C161.74 53.942 162.142 53.564 162.67 53.288C163.198 53 163.84 52.856 164.596 52.856C165.112 52.856 165.58 52.928 166 53.072H169.294V54.206L167.62 54.278C167.968 54.782 168.142 55.364 168.142 56.024C168.142 56.612 167.998 57.146 167.71 57.626C167.434 58.106 167.032 58.49 166.504 58.778C165.988 59.054 165.352 59.192 164.596 59.192ZM164.596 57.95C165.232 57.95 165.736 57.788 166.108 57.464C166.492 57.128 166.684 56.648 166.684 56.024C166.684 55.412 166.492 54.944 166.108 54.62C165.736 54.284 165.232 54.116 164.596 54.116C163.948 54.116 163.432 54.284 163.048 54.62C162.676 54.944 162.49 55.412 162.49 56.024C162.49 56.648 162.676 57.128 163.048 57.464C163.432 57.788 163.948 57.95 164.596 57.95ZM161.968 63.152C161.968 63.752 162.22 64.196 162.724 64.484C163.228 64.784 163.858 64.934 164.614 64.934C165.358 64.934 165.952 64.772 166.396 64.448C166.852 64.124 167.08 63.692 167.08 63.152C167.08 62.768 166.924 62.432 166.612 62.144C166.3 61.868 165.724 61.706 164.884 61.658C164.224 61.61 163.654 61.55 163.174 61.478C162.682 61.742 162.358 62.024 162.202 62.324C162.046 62.636 161.968 62.912 161.968 63.152ZM171 62V53.072H172.368L172.458 54.674C172.746 54.11 173.16 53.666 173.7 53.342C174.24 53.018 174.852 52.856 175.536 52.856C176.592 52.856 177.432 53.18 178.056 53.828C178.692 54.464 179.01 55.448 179.01 56.78V62H177.498V56.942C177.498 55.082 176.73 54.152 175.194 54.152C174.426 54.152 173.784 54.434 173.268 54.998C172.764 55.55 172.512 56.342 172.512 57.374V62H171ZM189.592 62C188.776 62 188.134 61.802 187.666 61.406C187.198 61.01 186.964 60.296 186.964 59.264V54.35H185.416V53.072H186.964L187.162 50.93H188.476V53.072H191.104V54.35H188.476V59.264C188.476 59.828 188.59 60.212 188.818 60.416C189.046 60.608 189.448 60.704 190.024 60.704H190.96V62H189.592ZM196.847 62.216C196.007 62.216 195.251 62.024 194.579 61.64C193.907 61.256 193.373 60.716 192.977 60.02C192.593 59.312 192.401 58.484 192.401 57.536C192.401 56.588 192.599 55.766 192.995 55.07C193.391 54.362 193.925 53.816 194.597 53.432C195.281 53.048 196.043 52.856 196.883 52.856C197.723 52.856 198.479 53.048 199.151 53.432C199.823 53.816 200.351 54.362 200.735 55.07C201.131 55.766 201.329 56.588 201.329 57.536C201.329 58.484 201.131 59.312 200.735 60.02C200.339 60.716 199.799 61.256 199.115 61.64C198.443 62.024 197.687 62.216 196.847 62.216ZM196.847 60.92C197.363 60.92 197.843 60.794 198.287 60.542C198.731 60.29 199.091 59.912 199.367 59.408C199.643 58.904 199.781 58.28 199.781 57.536C199.781 56.792 199.643 56.168 199.367 55.664C199.103 55.16 198.749 54.782 198.305 54.53C197.861 54.278 197.387 54.152 196.883 54.152C196.367 54.152 195.887 54.278 195.443 54.53C194.999 54.782 194.639 55.16 194.363 55.664C194.087 56.168 193.949 56.792 193.949 57.536C193.949 58.28 194.087 58.904 194.363 59.408C194.639 59.912 194.993 60.29 195.425 60.542C195.869 60.794 196.343 60.92 196.847 60.92ZM211.723 62C210.907 62 210.265 61.802 209.797 61.406C209.329 61.01 209.095 60.296 209.095 59.264V54.35H207.547V53.072H209.095L209.293 50.93H210.607V53.072H213.235V54.35H210.607V59.264C210.607 59.828 210.721 60.212 210.949 60.416C211.177 60.608 211.579 60.704 212.155 60.704H213.091V62H211.723ZM218.924 62.216C218.072 62.216 217.316 62.024 216.656 61.64C215.996 61.244 215.474 60.698 215.09 60.002C214.718 59.306 214.532 58.484 214.532 57.536C214.532 56.6 214.718 55.784 215.09 55.088C215.462 54.38 215.978 53.834 216.638 53.45C217.31 53.054 218.084 52.856 218.96 52.856C219.824 52.856 220.568 53.054 221.192 53.45C221.828 53.834 222.314 54.344 222.65 54.98C222.986 55.616 223.154 56.3 223.154 57.032C223.154 57.164 223.148 57.296 223.136 57.428C223.136 57.56 223.136 57.71 223.136 57.878H216.026C216.062 58.562 216.218 59.132 216.494 59.588C216.782 60.032 217.136 60.368 217.556 60.596C217.988 60.824 218.444 60.938 218.924 60.938C219.548 60.938 220.07 60.794 220.49 60.506C220.91 60.218 221.216 59.828 221.408 59.336H222.902C222.662 60.164 222.2 60.854 221.516 61.406C220.844 61.946 219.98 62.216 218.924 62.216ZM218.924 54.134C218.204 54.134 217.562 54.356 216.998 54.8C216.446 55.232 216.128 55.868 216.044 56.708H221.66C221.624 55.904 221.348 55.274 220.832 54.818C220.316 54.362 219.68 54.134 218.924 54.134ZM225.158 62V49.04H226.67V62H225.158ZM229.148 62V49.04H230.66V62H229.148ZM241.322 62.216C240.254 62.216 239.366 61.946 238.658 61.406C237.95 60.866 237.536 60.134 237.416 59.21H238.964C239.06 59.678 239.306 60.086 239.702 60.434C240.11 60.77 240.656 60.938 241.34 60.938C241.976 60.938 242.444 60.806 242.744 60.542C243.044 60.266 243.194 59.942 243.194 59.57C243.194 59.03 242.996 58.67 242.6 58.49C242.216 58.31 241.67 58.148 240.962 58.004C240.482 57.908 240.002 57.77 239.522 57.59C239.042 57.41 238.64 57.158 238.316 56.834C237.992 56.498 237.83 56.06 237.83 55.52C237.83 54.74 238.118 54.104 238.694 53.612C239.282 53.108 240.074 52.856 241.07 52.856C242.018 52.856 242.792 53.096 243.392 53.576C244.004 54.044 244.358 54.716 244.454 55.592H242.96C242.9 55.136 242.702 54.782 242.366 54.53C242.042 54.266 241.604 54.134 241.052 54.134C240.512 54.134 240.092 54.248 239.792 54.476C239.504 54.704 239.36 55.004 239.36 55.376C239.36 55.736 239.546 56.018 239.918 56.222C240.302 56.426 240.818 56.6 241.466 56.744C242.018 56.864 242.54 57.014 243.032 57.194C243.536 57.362 243.944 57.62 244.256 57.968C244.58 58.304 244.742 58.796 244.742 59.444C244.754 60.248 244.448 60.914 243.824 61.442C243.212 61.958 242.378 62.216 241.322 62.216ZM250.026 62C249.21 62 248.568 61.802 248.1 61.406C247.632 61.01 247.398 60.296 247.398 59.264V54.35H245.85V53.072H247.398L247.596 50.93H248.91V53.072H251.538V54.35H248.91V59.264C248.91 59.828 249.024 60.212 249.252 60.416C249.48 60.608 249.882 60.704 250.458 60.704H251.394V62H250.026ZM257.281 62.216C256.441 62.216 255.685 62.024 255.013 61.64C254.341 61.256 253.807 60.716 253.411 60.02C253.027 59.312 252.835 58.484 252.835 57.536C252.835 56.588 253.033 55.766 253.429 55.07C253.825 54.362 254.359 53.816 255.031 53.432C255.715 53.048 256.477 52.856 257.317 52.856C258.157 52.856 258.913 53.048 259.585 53.432C260.257 53.816 260.785 54.362 261.169 55.07C261.565 55.766 261.763 56.588 261.763 57.536C261.763 58.484 261.565 59.312 261.169 60.02C260.773 60.716 260.233 61.256 259.549 61.64C258.877 62.024 258.121 62.216 257.281 62.216ZM257.281 60.92C257.797 60.92 258.277 60.794 258.721 60.542C259.165 60.29 259.525 59.912 259.801 59.408C260.077 58.904 260.215 58.28 260.215 57.536C260.215 56.792 260.077 56.168 259.801 55.664C259.537 55.16 259.183 54.782 258.739 54.53C258.295 54.278 257.821 54.152 257.317 54.152C256.801 54.152 256.321 54.278 255.877 54.53C255.433 54.782 255.073 55.16 254.797 55.664C254.521 56.168 254.383 56.792 254.383 57.536C254.383 58.28 254.521 58.904 254.797 59.408C255.073 59.912 255.427 60.29 255.859 60.542C256.303 60.794 256.777 60.92 257.281 60.92ZM263.865 62V53.072H265.233L265.359 54.782C265.635 54.194 266.055 53.726 266.619 53.378C267.183 53.03 267.879 52.856 268.707 52.856V54.44H268.293C267.765 54.44 267.279 54.536 266.835 54.728C266.391 54.908 266.037 55.22 265.773 55.664C265.509 56.108 265.377 56.72 265.377 57.5V62H263.865ZM271.322 51.092C271.022 51.092 270.77 50.996 270.566 50.804C270.374 50.6 270.278 50.348 270.278 50.048C270.278 49.76 270.374 49.52 270.566 49.328C270.77 49.136 271.022 49.04 271.322 49.04C271.61 49.04 271.856 49.136 272.06 49.328C272.264 49.52 272.366 49.76 272.366 50.048C272.366 50.348 272.264 50.6 272.06 50.804C271.856 50.996 271.61 51.092 271.322 51.092ZM270.566 62V53.072H272.078V62H270.566ZM278.725 62.216C277.873 62.216 277.117 62.024 276.457 61.64C275.797 61.244 275.275 60.698 274.891 60.002C274.519 59.306 274.333 58.484 274.333 57.536C274.333 56.6 274.519 55.784 274.891 55.088C275.263 54.38 275.779 53.834 276.439 53.45C277.111 53.054 277.885 52.856 278.761 52.856C279.625 52.856 280.369 53.054 280.993 53.45C281.629 53.834 282.115 54.344 282.451 54.98C282.787 55.616 282.955 56.3 282.955 57.032C282.955 57.164 282.949 57.296 282.937 57.428C282.937 57.56 282.937 57.71 282.937 57.878H275.827C275.863 58.562 276.019 59.132 276.295 59.588C276.583 60.032 276.937 60.368 277.357 60.596C277.789 60.824 278.245 60.938 278.725 60.938C279.349 60.938 279.871 60.794 280.291 60.506C280.711 60.218 281.017 59.828 281.209 59.336H282.703C282.463 60.164 282.001 60.854 281.317 61.406C280.645 61.946 279.781 62.216 278.725 62.216ZM278.725 54.134C278.005 54.134 277.363 54.356 276.799 54.8C276.247 55.232 275.929 55.868 275.845 56.708H281.461C281.425 55.904 281.149 55.274 280.633 54.818C280.117 54.362 279.481 54.134 278.725 54.134ZM288.379 62.216C287.311 62.216 286.423 61.946 285.715 61.406C285.007 60.866 284.593 60.134 284.473 59.21H286.021C286.117 59.678 286.363 60.086 286.759 60.434C287.167 60.77 287.713 60.938 288.397 60.938C289.033 60.938 289.501 60.806 289.801 60.542C290.101 60.266 290.251 59.942 290.251 59.57C290.251 59.03 290.053 58.67 289.657 58.49C289.273 58.31 288.727 58.148 288.019 58.004C287.539 57.908 287.059 57.77 286.579 57.59C286.099 57.41 285.697 57.158 285.373 56.834C285.049 56.498 284.887 56.06 284.887 55.52C284.887 54.74 285.175 54.104 285.751 53.612C286.339 53.108 287.131 52.856 288.127 52.856C289.075 52.856 289.849 53.096 290.449 53.576C291.061 54.044 291.415 54.716 291.511 55.592H290.017C289.957 55.136 289.759 54.782 289.423 54.53C289.099 54.266 288.661 54.134 288.109 54.134C287.569 54.134 287.149 54.248 286.849 54.476C286.561 54.704 286.417 55.004 286.417 55.376C286.417 55.736 286.603 56.018 286.975 56.222C287.359 56.426 287.875 56.6 288.523 56.744C289.075 56.864 289.597 57.014 290.089 57.194C290.593 57.362 291.001 57.62 291.313 57.968C291.637 58.304 291.799 58.796 291.799 59.444C291.811 60.248 291.505 60.914 290.881 61.442C290.269 61.958 289.435 62.216 288.379 62.216ZM300.522 62L297.912 53.072H299.424L301.314 60.074L303.402 53.072H305.112L307.218 60.074L309.09 53.072H310.62L308.01 62H306.462L304.266 54.638L302.07 62H300.522ZM312.293 62V49.04H313.805V54.602C314.105 54.05 314.531 53.624 315.083 53.324C315.635 53.012 316.235 52.856 316.883 52.856C317.915 52.856 318.743 53.18 319.367 53.828C319.991 54.464 320.303 55.448 320.303 56.78V62H318.809V56.942C318.809 55.082 318.059 54.152 316.559 54.152C315.779 54.152 315.125 54.434 314.597 54.998C314.069 55.55 313.805 56.342 313.805 57.374V62H312.293ZM323.512 51.092C323.212 51.092 322.96 50.996 322.756 50.804C322.564 50.6 322.468 50.348 322.468 50.048C322.468 49.76 322.564 49.52 322.756 49.328C322.96 49.136 323.212 49.04 323.512 49.04C323.8 49.04 324.046 49.136 324.25 49.328C324.454 49.52 324.556 49.76 324.556 50.048C324.556 50.348 324.454 50.6 324.25 50.804C324.046 50.996 323.8 51.092 323.512 51.092ZM322.756 62V53.072H324.268V62H322.756ZM331.004 62.216C330.152 62.216 329.384 62.024 328.7 61.64C328.028 61.244 327.494 60.698 327.098 60.002C326.714 59.294 326.522 58.472 326.522 57.536C326.522 56.6 326.714 55.784 327.098 55.088C327.494 54.38 328.028 53.834 328.7 53.45C329.384 53.054 330.152 52.856 331.004 52.856C332.06 52.856 332.948 53.132 333.668 53.684C334.4 54.236 334.862 54.974 335.054 55.898H333.506C333.386 55.346 333.092 54.92 332.624 54.62C332.156 54.308 331.61 54.152 330.986 54.152C330.482 54.152 330.008 54.278 329.564 54.53C329.12 54.782 328.76 55.16 328.484 55.664C328.208 56.168 328.07 56.792 328.07 57.536C328.07 58.28 328.208 58.904 328.484 59.408C328.76 59.912 329.12 60.296 329.564 60.56C330.008 60.812 330.482 60.938 330.986 60.938C331.61 60.938 332.156 60.788 332.624 60.488C333.092 60.176 333.386 59.738 333.506 59.174H335.054C334.874 60.074 334.418 60.806 333.686 61.37C332.954 61.934 332.06 62.216 331.004 62.216ZM337.166 62V49.04H338.678V54.602C338.978 54.05 339.404 53.624 339.956 53.324C340.508 53.012 341.108 52.856 341.756 52.856C342.788 52.856 343.616 53.18 344.24 53.828C344.864 54.464 345.176 55.448 345.176 56.78V62H343.682V56.942C343.682 55.082 342.932 54.152 341.432 54.152C340.652 54.152 339.998 54.434 339.47 54.998C338.942 55.55 338.678 56.342 338.678 57.374V62H337.166ZM16.332 89V76.4H17.844V89H16.332ZM19.7776 80.414L20.8216 76.4H22.5136L20.8576 80.414H19.7776ZM28.3076 89.216C27.4196 89.216 26.6396 89.012 25.9676 88.604C25.3076 88.196 24.7916 87.638 24.4196 86.93C24.0596 86.222 23.8796 85.418 23.8796 84.518C23.8796 83.618 24.0656 82.82 24.4376 82.124C24.8096 81.416 25.3256 80.864 25.9856 80.468C26.6456 80.06 27.4256 79.856 28.3256 79.856C29.0576 79.856 29.7056 80.006 30.2696 80.306C30.8336 80.606 31.2716 81.026 31.5836 81.566V76.04H33.0956V89H31.7276L31.5836 87.524C31.2956 87.956 30.8816 88.346 30.3416 88.694C29.8016 89.042 29.1236 89.216 28.3076 89.216ZM28.4696 87.902C29.0696 87.902 29.5976 87.764 30.0536 87.488C30.5216 87.2 30.8816 86.804 31.1336 86.3C31.3976 85.796 31.5296 85.208 31.5296 84.536C31.5296 83.864 31.3976 83.276 31.1336 82.772C30.8816 82.268 30.5216 81.878 30.0536 81.602C29.5976 81.314 29.0696 81.17 28.4696 81.17C27.8816 81.17 27.3536 81.314 26.8856 81.602C26.4296 81.878 26.0696 82.268 25.8056 82.772C25.5536 83.276 25.4276 83.864 25.4276 84.536C25.4276 85.208 25.5536 85.796 25.8056 86.3C26.0696 86.804 26.4296 87.2 26.8856 87.488C27.3536 87.764 27.8816 87.902 28.4696 87.902ZM40.324 89V76.04H41.836V89H40.324ZM45.2323 78.092C44.9323 78.092 44.6803 77.996 44.4763 77.804C44.2843 77.6 44.1883 77.348 44.1883 77.048C44.1883 76.76 44.2843 76.52 44.4763 76.328C44.6803 76.136 44.9323 76.04 45.2323 76.04C45.5203 76.04 45.7663 76.136 45.9703 76.328C46.1743 76.52 46.2763 76.76 46.2763 77.048C46.2763 77.348 46.1743 77.6 45.9703 77.804C45.7663 77.996 45.5203 78.092 45.2323 78.092ZM44.4763 89V80.072H45.9883V89H44.4763ZM48.6209 89V76.04H50.1329V83.834L53.7869 80.072H55.6409L51.6809 84.104L56.1449 89H54.2189L50.1329 84.374V89H48.6209ZM61.0548 89.216C60.2028 89.216 59.4468 89.024 58.7868 88.64C58.1268 88.244 57.6048 87.698 57.2208 87.002C56.8488 86.306 56.6628 85.484 56.6628 84.536C56.6628 83.6 56.8488 82.784 57.2208 82.088C57.5928 81.38 58.1088 80.834 58.7688 80.45C59.4408 80.054 60.2148 79.856 61.0908 79.856C61.9548 79.856 62.6988 80.054 63.3228 80.45C63.9588 80.834 64.4448 81.344 64.7808 81.98C65.1168 82.616 65.2848 83.3 65.2848 84.032C65.2848 84.164 65.2788 84.296 65.2668 84.428C65.2668 84.56 65.2668 84.71 65.2668 84.878H58.1568C58.1928 85.562 58.3488 86.132 58.6248 86.588C58.9128 87.032 59.2668 87.368 59.6868 87.596C60.1188 87.824 60.5748 87.938 61.0548 87.938C61.6788 87.938 62.2008 87.794 62.6208 87.506C63.0408 87.218 63.3468 86.828 63.5388 86.336H65.0328C64.7928 87.164 64.3308 87.854 63.6468 88.406C62.9748 88.946 62.1108 89.216 61.0548 89.216ZM61.0548 81.134C60.3348 81.134 59.6928 81.356 59.1288 81.8C58.5768 82.232 58.2588 82.868 58.1748 83.708H63.7908C63.7548 82.904 63.4788 82.274 62.9628 81.818C62.4468 81.362 61.8108 81.134 61.0548 81.134ZM73.0245 92.96L75.2385 88.136H74.7165L71.1705 80.072H72.8085L75.7605 87.02L78.8925 80.072H80.4585L74.6085 92.96H73.0245ZM85.2788 89.216C84.4388 89.216 83.6828 89.024 83.0108 88.64C82.3388 88.256 81.8048 87.716 81.4088 87.02C81.0248 86.312 80.8328 85.484 80.8328 84.536C80.8328 83.588 81.0308 82.766 81.4268 82.07C81.8228 81.362 82.3568 80.816 83.0288 80.432C83.7128 80.048 84.4748 79.856 85.3148 79.856C86.1548 79.856 86.9108 80.048 87.5828 80.432C88.2548 80.816 88.7828 81.362 89.1668 82.07C89.5628 82.766 89.7608 83.588 89.7608 84.536C89.7608 85.484 89.5628 86.312 89.1668 87.02C88.7708 87.716 88.2308 88.256 87.5468 88.64C86.8748 89.024 86.1188 89.216 85.2788 89.216ZM85.2788 87.92C85.7948 87.92 86.2748 87.794 86.7188 87.542C87.1628 87.29 87.5228 86.912 87.7988 86.408C88.0748 85.904 88.2128 85.28 88.2128 84.536C88.2128 83.792 88.0748 83.168 87.7988 82.664C87.5348 82.16 87.1808 81.782 86.7368 81.53C86.2928 81.278 85.8188 81.152 85.3148 81.152C84.7988 81.152 84.3188 81.278 83.8748 81.53C83.4308 81.782 83.0708 82.16 82.7948 82.664C82.5188 83.168 82.3808 83.792 82.3808 84.536C82.3808 85.28 82.5188 85.904 82.7948 86.408C83.0708 86.912 83.4248 87.29 83.8568 87.542C84.3008 87.794 84.7748 87.92 85.2788 87.92ZM95.1211 89.216C94.0651 89.216 93.2251 88.898 92.6011 88.262C91.9771 87.614 91.6651 86.624 91.6651 85.292V80.072H93.1771V85.13C93.1771 86.99 93.9391 87.92 95.4631 87.92C96.2431 87.92 96.8851 87.644 97.3891 87.092C97.9051 86.528 98.1631 85.73 98.1631 84.698V80.072H99.6751V89H98.3071L98.1991 87.398C97.9231 87.962 97.5091 88.406 96.9571 88.73C96.4171 89.054 95.8051 89.216 95.1211 89.216ZM110.456 89C109.64 89 108.998 88.802 108.53 88.406C108.062 88.01 107.828 87.296 107.828 86.264V81.35H106.28V80.072H107.828L108.026 77.93H109.34V80.072H111.968V81.35H109.34V86.264C109.34 86.828 109.454 87.212 109.682 87.416C109.91 87.608 110.312 87.704 110.888 87.704H111.824V89H110.456ZM117.71 89.216C116.87 89.216 116.114 89.024 115.442 88.64C114.77 88.256 114.236 87.716 113.84 87.02C113.456 86.312 113.264 85.484 113.264 84.536C113.264 83.588 113.462 82.766 113.858 82.07C114.254 81.362 114.788 80.816 115.46 80.432C116.144 80.048 116.906 79.856 117.746 79.856C118.586 79.856 119.342 80.048 120.014 80.432C120.686 80.816 121.214 81.362 121.598 82.07C121.994 82.766 122.192 83.588 122.192 84.536C122.192 85.484 121.994 86.312 121.598 87.02C121.202 87.716 120.662 88.256 119.978 88.64C119.306 89.024 118.55 89.216 117.71 89.216ZM117.71 87.92C118.226 87.92 118.706 87.794 119.15 87.542C119.594 87.29 119.954 86.912 120.23 86.408C120.506 85.904 120.644 85.28 120.644 84.536C120.644 83.792 120.506 83.168 120.23 82.664C119.966 82.16 119.612 81.782 119.168 81.53C118.724 81.278 118.25 81.152 117.746 81.152C117.23 81.152 116.75 81.278 116.306 81.53C115.862 81.782 115.502 82.16 115.226 82.664C114.95 83.168 114.812 83.792 114.812 84.536C114.812 85.28 114.95 85.904 115.226 86.408C115.502 86.912 115.856 87.29 116.288 87.542C116.732 87.794 117.206 87.92 117.71 87.92ZM129.058 89V76.04H130.57V81.602C130.87 81.05 131.296 80.624 131.848 80.324C132.4 80.012 133 79.856 133.648 79.856C134.68 79.856 135.508 80.18 136.132 80.828C136.756 81.464 137.068 82.448 137.068 83.78V89H135.574V83.942C135.574 82.082 134.824 81.152 133.324 81.152C132.544 81.152 131.89 81.434 131.362 81.998C130.834 82.55 130.57 83.342 130.57 84.374V89H129.058ZM142.329 89.216C141.585 89.216 140.967 89.09 140.475 88.838C139.983 88.586 139.617 88.25 139.377 87.83C139.137 87.41 139.017 86.954 139.017 86.462C139.017 85.55 139.365 84.848 140.061 84.356C140.757 83.864 141.705 83.618 142.905 83.618H145.317V83.51C145.317 82.73 145.113 82.142 144.705 81.746C144.297 81.338 143.751 81.134 143.067 81.134C142.479 81.134 141.969 81.284 141.537 81.584C141.117 81.872 140.853 82.298 140.745 82.862H139.197C139.257 82.214 139.473 81.668 139.845 81.224C140.229 80.78 140.703 80.444 141.267 80.216C141.831 79.976 142.431 79.856 143.067 79.856C144.315 79.856 145.251 80.192 145.875 80.864C146.511 81.524 146.829 82.406 146.829 83.51V89H145.479L145.389 87.398C145.137 87.902 144.765 88.334 144.273 88.694C143.793 89.042 143.145 89.216 142.329 89.216ZM142.563 87.938C143.139 87.938 143.631 87.788 144.039 87.488C144.459 87.188 144.777 86.798 144.993 86.318C145.209 85.838 145.317 85.334 145.317 84.806V84.788H143.031C142.143 84.788 141.513 84.944 141.141 85.256C140.781 85.556 140.601 85.934 140.601 86.39C140.601 86.858 140.769 87.236 141.105 87.524C141.453 87.8 141.939 87.938 142.563 87.938ZM151.337 89L147.953 80.072H149.537L152.219 87.542L154.919 80.072H156.467L153.083 89H151.337ZM161.707 89.216C160.855 89.216 160.099 89.024 159.439 88.64C158.779 88.244 158.257 87.698 157.873 87.002C157.501 86.306 157.315 85.484 157.315 84.536C157.315 83.6 157.501 82.784 157.873 82.088C158.245 81.38 158.761 80.834 159.421 80.45C160.093 80.054 160.867 79.856 161.743 79.856C162.607 79.856 163.351 80.054 163.975 80.45C164.611 80.834 165.097 81.344 165.433 81.98C165.769 82.616 165.937 83.3 165.937 84.032C165.937 84.164 165.931 84.296 165.919 84.428C165.919 84.56 165.919 84.71 165.919 84.878H158.809C158.845 85.562 159.001 86.132 159.277 86.588C159.565 87.032 159.919 87.368 160.339 87.596C160.771 87.824 161.227 87.938 161.707 87.938C162.331 87.938 162.853 87.794 163.273 87.506C163.693 87.218 163.999 86.828 164.191 86.336H165.685C165.445 87.164 164.983 87.854 164.299 88.406C163.627 88.946 162.763 89.216 161.707 89.216ZM161.707 81.134C160.987 81.134 160.345 81.356 159.781 81.8C159.229 82.232 158.911 82.868 158.827 83.708H164.443C164.407 82.904 164.131 82.274 163.615 81.818C163.099 81.362 162.463 81.134 161.707 81.134ZM175.675 89.216C174.931 89.216 174.313 89.09 173.821 88.838C173.329 88.586 172.963 88.25 172.723 87.83C172.483 87.41 172.363 86.954 172.363 86.462C172.363 85.55 172.711 84.848 173.407 84.356C174.103 83.864 175.051 83.618 176.251 83.618H178.663V83.51C178.663 82.73 178.459 82.142 178.051 81.746C177.643 81.338 177.097 81.134 176.413 81.134C175.825 81.134 175.315 81.284 174.883 81.584C174.463 81.872 174.199 82.298 174.091 82.862H172.543C172.603 82.214 172.819 81.668 173.191 81.224C173.575 80.78 174.049 80.444 174.613 80.216C175.177 79.976 175.777 79.856 176.413 79.856C177.661 79.856 178.597 80.192 179.221 80.864C179.857 81.524 180.175 82.406 180.175 83.51V89H178.825L178.735 87.398C178.483 87.902 178.111 88.334 177.619 88.694C177.139 89.042 176.491 89.216 175.675 89.216ZM175.909 87.938C176.485 87.938 176.977 87.788 177.385 87.488C177.805 87.188 178.123 86.798 178.339 86.318C178.555 85.838 178.663 85.334 178.663 84.806V84.788H176.377C175.489 84.788 174.859 84.944 174.487 85.256C174.127 85.556 173.947 85.934 173.947 86.39C173.947 86.858 174.115 87.236 174.451 87.524C174.799 87.8 175.285 87.938 175.909 87.938ZM187.207 89V76.04H188.719V89H187.207ZM195.265 89.216C194.425 89.216 193.669 89.024 192.997 88.64C192.325 88.256 191.791 87.716 191.395 87.02C191.011 86.312 190.819 85.484 190.819 84.536C190.819 83.588 191.017 82.766 191.413 82.07C191.809 81.362 192.343 80.816 193.015 80.432C193.699 80.048 194.461 79.856 195.301 79.856C196.141 79.856 196.897 80.048 197.569 80.432C198.241 80.816 198.769 81.362 199.153 82.07C199.549 82.766 199.747 83.588 199.747 84.536C199.747 85.484 199.549 86.312 199.153 87.02C198.757 87.716 198.217 88.256 197.533 88.64C196.861 89.024 196.105 89.216 195.265 89.216ZM195.265 87.92C195.781 87.92 196.261 87.794 196.705 87.542C197.149 87.29 197.509 86.912 197.785 86.408C198.061 85.904 198.199 85.28 198.199 84.536C198.199 83.792 198.061 83.168 197.785 82.664C197.521 82.16 197.167 81.782 196.723 81.53C196.279 81.278 195.805 81.152 195.301 81.152C194.785 81.152 194.305 81.278 193.861 81.53C193.417 81.782 193.057 82.16 192.781 82.664C192.505 83.168 192.367 83.792 192.367 84.536C192.367 85.28 192.505 85.904 192.781 86.408C193.057 86.912 193.411 87.29 193.843 87.542C194.287 87.794 194.761 87.92 195.265 87.92ZM205.917 89.216C205.077 89.216 204.321 89.024 203.649 88.64C202.977 88.256 202.443 87.716 202.047 87.02C201.663 86.312 201.471 85.484 201.471 84.536C201.471 83.588 201.669 82.766 202.065 82.07C202.461 81.362 202.995 80.816 203.667 80.432C204.351 80.048 205.113 79.856 205.953 79.856C206.793 79.856 207.549 80.048 208.221 80.432C208.893 80.816 209.421 81.362 209.805 82.07C210.201 82.766 210.399 83.588 210.399 84.536C210.399 85.484 210.201 86.312 209.805 87.02C209.409 87.716 208.869 88.256 208.185 88.64C207.513 89.024 206.757 89.216 205.917 89.216ZM205.917 87.92C206.433 87.92 206.913 87.794 207.357 87.542C207.801 87.29 208.161 86.912 208.437 86.408C208.713 85.904 208.851 85.28 208.851 84.536C208.851 83.792 208.713 83.168 208.437 82.664C208.173 82.16 207.819 81.782 207.375 81.53C206.931 81.278 206.457 81.152 205.953 81.152C205.437 81.152 204.957 81.278 204.513 81.53C204.069 81.782 203.709 82.16 203.433 82.664C203.157 83.168 203.019 83.792 203.019 84.536C203.019 85.28 203.157 85.904 203.433 86.408C203.709 86.912 204.063 87.29 204.495 87.542C204.939 87.794 205.413 87.92 205.917 87.92ZM212.502 89V76.04H214.014V83.834L217.668 80.072H219.522L215.562 84.104L220.026 89H218.1L214.014 84.374V89H212.502ZM229.306 89.216C228.562 89.216 227.944 89.09 227.452 88.838C226.96 88.586 226.594 88.25 226.354 87.83C226.114 87.41 225.994 86.954 225.994 86.462C225.994 85.55 226.342 84.848 227.038 84.356C227.734 83.864 228.682 83.618 229.882 83.618H232.294V83.51C232.294 82.73 232.09 82.142 231.682 81.746C231.274 81.338 230.728 81.134 230.044 81.134C229.456 81.134 228.946 81.284 228.514 81.584C228.094 81.872 227.83 82.298 227.722 82.862H226.174C226.234 82.214 226.45 81.668 226.822 81.224C227.206 80.78 227.68 80.444 228.244 80.216C228.808 79.976 229.408 79.856 230.044 79.856C231.292 79.856 232.228 80.192 232.852 80.864C233.488 81.524 233.806 82.406 233.806 83.51V89H232.456L232.366 87.398C232.114 87.902 231.742 88.334 231.25 88.694C230.77 89.042 230.122 89.216 229.306 89.216ZM229.54 87.938C230.116 87.938 230.608 87.788 231.016 87.488C231.436 87.188 231.754 86.798 231.97 86.318C232.186 85.838 232.294 85.334 232.294 84.806V84.788H230.008C229.12 84.788 228.49 84.944 228.118 85.256C227.758 85.556 227.578 85.934 227.578 86.39C227.578 86.858 227.746 87.236 228.082 87.524C228.43 87.8 228.916 87.938 229.54 87.938ZM239.356 89C238.54 89 237.898 88.802 237.43 88.406C236.962 88.01 236.728 87.296 236.728 86.264V81.35H235.18V80.072H236.728L236.926 77.93H238.24V80.072H240.868V81.35H238.24V86.264C238.24 86.828 238.354 87.212 238.582 87.416C238.81 87.608 239.212 87.704 239.788 87.704H240.724V89H239.356ZM251.081 89C250.265 89 249.623 88.802 249.155 88.406C248.687 88.01 248.453 87.296 248.453 86.264V81.35H246.905V80.072H248.453L248.651 77.93H249.965V80.072H252.593V81.35H249.965V86.264C249.965 86.828 250.079 87.212 250.307 87.416C250.535 87.608 250.937 87.704 251.513 87.704H252.449V89H251.081ZM254.513 89V76.04H256.025V81.602C256.325 81.05 256.751 80.624 257.303 80.324C257.855 80.012 258.455 79.856 259.103 79.856C260.135 79.856 260.963 80.18 261.587 80.828C262.211 81.464 262.523 82.448 262.523 83.78V89H261.029V83.942C261.029 82.082 260.279 81.152 258.779 81.152C257.999 81.152 257.345 81.434 256.817 81.998C256.289 82.55 256.025 83.342 256.025 84.374V89H254.513ZM268.828 89.216C267.976 89.216 267.22 89.024 266.56 88.64C265.9 88.244 265.378 87.698 264.994 87.002C264.622 86.306 264.436 85.484 264.436 84.536C264.436 83.6 264.622 82.784 264.994 82.088C265.366 81.38 265.882 80.834 266.542 80.45C267.214 80.054 267.988 79.856 268.864 79.856C269.728 79.856 270.472 80.054 271.096 80.45C271.732 80.834 272.218 81.344 272.554 81.98C272.89 82.616 273.058 83.3 273.058 84.032C273.058 84.164 273.052 84.296 273.04 84.428C273.04 84.56 273.04 84.71 273.04 84.878H265.93C265.966 85.562 266.122 86.132 266.398 86.588C266.686 87.032 267.04 87.368 267.46 87.596C267.892 87.824 268.348 87.938 268.828 87.938C269.452 87.938 269.974 87.794 270.394 87.506C270.814 87.218 271.12 86.828 271.312 86.336H272.806C272.566 87.164 272.104 87.854 271.42 88.406C270.748 88.946 269.884 89.216 268.828 89.216ZM268.828 81.134C268.108 81.134 267.466 81.356 266.902 81.8C266.35 82.232 266.032 82.868 265.948 83.708H271.564C271.528 82.904 271.252 82.274 270.736 81.818C270.22 81.362 269.584 81.134 268.828 81.134ZM275.062 89V80.072H276.43L276.538 81.368C276.826 80.888 277.21 80.516 277.69 80.252C278.17 79.988 278.71 79.856 279.31 79.856C280.018 79.856 280.624 80 281.128 80.288C281.644 80.576 282.04 81.014 282.316 81.602C282.628 81.062 283.054 80.636 283.594 80.324C284.146 80.012 284.74 79.856 285.376 79.856C286.444 79.856 287.296 80.18 287.932 80.828C288.568 81.464 288.886 82.448 288.886 83.78V89H287.392V83.942C287.392 83.018 287.206 82.322 286.834 81.854C286.462 81.386 285.928 81.152 285.232 81.152C284.512 81.152 283.912 81.434 283.432 81.998C282.964 82.55 282.73 83.342 282.73 84.374V89H281.218V83.942C281.218 83.018 281.032 82.322 280.66 81.854C280.288 81.386 279.754 81.152 279.058 81.152C278.35 81.152 277.756 81.434 277.276 81.998C276.808 82.55 276.574 83.342 276.574 84.374V89H275.062Z" fill="black"/>
<path d="M323.66 94.144C323.132 94.144 322.68 94.04 322.304 93.832C321.928 93.624 321.628 93.348 321.404 93.004C321.188 92.652 321.056 92.264 321.008 91.84H321.944C322.024 92.296 322.216 92.648 322.52 92.896C322.824 93.144 323.208 93.268 323.672 93.268C324.312 93.268 324.844 92.972 325.268 92.38C325.692 91.78 325.92 90.848 325.952 89.584C325.76 89.96 325.452 90.288 325.028 90.568C324.612 90.84 324.108 90.976 323.516 90.976C323.044 90.976 322.596 90.864 322.172 90.64C321.748 90.416 321.404 90.104 321.14 89.704C320.876 89.296 320.744 88.82 320.744 88.276C320.744 87.804 320.86 87.352 321.092 86.92C321.332 86.488 321.668 86.136 322.1 85.864C322.532 85.592 323.048 85.456 323.648 85.456C324.256 85.456 324.768 85.572 325.184 85.804C325.6 86.028 325.932 86.332 326.18 86.716C326.436 87.1 326.62 87.532 326.732 88.012C326.852 88.484 326.912 88.968 326.912 89.464C326.912 90.392 326.784 91.208 326.528 91.912C326.272 92.608 325.9 93.156 325.412 93.556C324.932 93.948 324.348 94.144 323.66 94.144ZM323.72 90.1C324.096 90.1 324.432 90.016 324.728 89.848C325.024 89.672 325.26 89.44 325.436 89.152C325.612 88.864 325.7 88.552 325.7 88.216C325.7 87.856 325.612 87.536 325.436 87.256C325.26 86.968 325.024 86.744 324.728 86.584C324.432 86.424 324.096 86.344 323.72 86.344C323.344 86.344 323.008 86.424 322.712 86.584C322.416 86.744 322.184 86.968 322.016 87.256C321.848 87.536 321.764 87.86 321.764 88.228C321.764 88.796 321.948 89.252 322.316 89.596C322.692 89.932 323.16 90.1 323.72 90.1ZM328.735 94.06C328.535 94.06 328.367 93.996 328.231 93.868C328.103 93.732 328.039 93.568 328.039 93.376C328.039 93.184 328.103 93.024 328.231 92.896C328.367 92.76 328.535 92.692 328.735 92.692C328.927 92.692 329.087 92.76 329.215 92.896C329.351 93.024 329.419 93.184 329.419 93.376C329.419 93.568 329.351 93.732 329.215 93.868C329.087 93.996 328.927 94.06 328.735 94.06ZM328.735 89.272C328.535 89.272 328.367 89.208 328.231 89.08C328.103 88.944 328.039 88.78 328.039 88.588C328.039 88.396 328.103 88.236 328.231 88.108C328.367 87.972 328.535 87.904 328.735 87.904C328.927 87.904 329.087 87.972 329.215 88.108C329.351 88.236 329.419 88.396 329.419 88.588C329.419 88.78 329.351 88.944 329.215 89.08C329.087 89.208 328.927 89.272 328.735 89.272ZM334.113 94.144C333.369 94.144 332.725 93.964 332.181 93.604C331.645 93.236 331.233 92.728 330.945 92.08C330.657 91.424 330.513 90.664 330.513 89.8C330.513 88.936 330.657 88.18 330.945 87.532C331.233 86.876 331.645 86.368 332.181 86.008C332.725 85.64 333.369 85.456 334.113 85.456C334.857 85.456 335.497 85.64 336.033 86.008C336.569 86.368 336.981 86.876 337.269 87.532C337.557 88.18 337.701 88.936 337.701 89.8C337.701 90.664 337.557 91.424 337.269 92.08C336.981 92.728 336.569 93.236 336.033 93.604C335.497 93.964 334.857 94.144 334.113 94.144ZM334.113 93.256C334.601 93.256 335.037 93.12 335.421 92.848C335.813 92.568 336.117 92.172 336.333 91.66C336.557 91.14 336.669 90.52 336.669 89.8C336.669 89.08 336.557 88.464 336.333 87.952C336.117 87.44 335.813 87.048 335.421 86.776C335.037 86.496 334.601 86.356 334.113 86.356C333.617 86.356 333.177 86.496 332.793 86.776C332.409 87.048 332.105 87.44 331.881 87.952C331.657 88.464 331.545 89.08 331.545 89.8C331.545 90.52 331.657 91.14 331.881 91.66C332.105 92.172 332.409 92.568 332.793 92.848C333.177 93.12 333.617 93.256 334.113 93.256ZM342.014 94.144C341.438 94.144 340.938 94.04 340.514 93.832C340.09 93.624 339.75 93.34 339.494 92.98C339.246 92.612 339.094 92.196 339.038 91.732H340.022C340.118 92.196 340.342 92.572 340.694 92.86C341.046 93.14 341.49 93.28 342.026 93.28C342.426 93.28 342.77 93.188 343.058 93.004C343.346 92.812 343.566 92.556 343.718 92.236C343.878 91.916 343.958 91.56 343.958 91.168C343.958 90.544 343.782 90.04 343.43 89.656C343.078 89.272 342.622 89.08 342.062 89.08C341.598 89.08 341.202 89.184 340.874 89.392C340.546 89.6 340.306 89.872 340.154 90.208H339.194L339.914 85.6H344.318V86.476H340.694L340.202 89.032C340.394 88.8 340.658 88.608 340.994 88.456C341.338 88.304 341.73 88.228 342.17 88.228C342.722 88.228 343.202 88.356 343.61 88.612C344.026 88.868 344.35 89.216 344.582 89.656C344.814 90.096 344.93 90.596 344.93 91.156C344.93 91.692 344.814 92.188 344.582 92.644C344.358 93.1 344.026 93.464 343.586 93.736C343.154 94.008 342.63 94.144 342.014 94.144ZM346.445 96.64V88.048H347.357L347.453 89.032C347.645 88.744 347.917 88.484 348.269 88.252C348.629 88.02 349.085 87.904 349.637 87.904C350.229 87.904 350.745 88.04 351.185 88.312C351.625 88.584 351.965 88.956 352.205 89.428C352.453 89.9 352.577 90.436 352.577 91.036C352.577 91.636 352.453 92.172 352.205 92.644C351.965 93.108 351.621 93.476 351.173 93.748C350.733 94.012 350.217 94.144 349.625 94.144C349.137 94.144 348.701 94.044 348.317 93.844C347.941 93.644 347.653 93.364 347.453 93.004V96.64H346.445ZM349.517 93.268C349.917 93.268 350.269 93.176 350.573 92.992C350.877 92.8 351.117 92.536 351.293 92.2C351.469 91.864 351.557 91.472 351.557 91.024C351.557 90.576 351.469 90.184 351.293 89.848C351.117 89.512 350.877 89.252 350.573 89.068C350.269 88.876 349.917 88.78 349.517 88.78C349.117 88.78 348.765 88.876 348.461 89.068C348.157 89.252 347.917 89.512 347.741 89.848C347.565 90.184 347.477 90.576 347.477 91.024C347.477 91.472 347.565 91.864 347.741 92.2C347.917 92.536 348.157 92.8 348.461 92.992C348.765 93.176 349.117 93.268 349.517 93.268ZM353.98 94V88.048H354.892L354.964 88.912C355.156 88.592 355.412 88.344 355.732 88.168C356.052 87.992 356.412 87.904 356.812 87.904C357.284 87.904 357.688 88 358.024 88.192C358.368 88.384 358.632 88.676 358.816 89.068C359.024 88.708 359.308 88.424 359.668 88.216C360.036 88.008 360.432 87.904 360.856 87.904C361.568 87.904 362.136 88.12 362.56 88.552C362.984 88.976 363.196 89.632 363.196 90.52V94H362.2V90.628C362.2 90.012 362.076 89.548 361.828 89.236C361.58 88.924 361.224 88.768 360.76 88.768C360.28 88.768 359.88 88.956 359.56 89.332C359.248 89.7 359.092 90.228 359.092 90.916V94H358.084V90.628C358.084 90.012 357.96 89.548 357.712 89.236C357.464 88.924 357.108 88.768 356.644 88.768C356.172 88.768 355.776 88.956 355.456 89.332C355.144 89.7 354.988 90.228 354.988 90.916V94H353.98Z" fill="black" fill-opacity="0.5"/>
</svg>
