<svg width="305" height="105" viewBox="0 0 305 105" fill="none" xmlns="http://www.w3.org/2000/svg">
<path d="M0 15C0 6.71573 6.71573 0 15 0H290C298.284 0 305 6.71573 305 15V90C305 98.2843 298.284 105 290 105H0V15Z" fill="white"/>
<path d="M21.75 35.216C20.574 35.216 19.542 34.946 18.654 34.406C17.766 33.854 17.076 33.092 16.584 32.12C16.092 31.136 15.846 30.002 15.846 28.718C15.846 27.434 16.092 26.3 16.584 25.316C17.088 24.332 17.796 23.564 18.708 23.012C19.632 22.46 20.718 22.184 21.966 22.184C23.382 22.184 24.558 22.526 25.494 23.21C26.442 23.894 27.054 24.836 27.33 26.036H25.584C25.416 25.28 25.014 24.68 24.378 24.236C23.754 23.792 22.95 23.57 21.966 23.57C21.042 23.57 20.238 23.78 19.554 24.2C18.87 24.608 18.336 25.196 17.952 25.964C17.58 26.732 17.394 27.65 17.394 28.718C17.394 29.786 17.58 30.704 17.952 31.472C18.324 32.24 18.84 32.834 19.5 33.254C20.16 33.662 20.928 33.866 21.804 33.866C23.148 33.866 24.162 33.476 24.846 32.696C25.53 31.904 25.92 30.824 26.016 29.456H22.38V28.268H27.564V35H26.178L26.052 32.93C25.596 33.662 25.038 34.226 24.378 34.622C23.718 35.018 22.842 35.216 21.75 35.216ZM33.933 35.216C33.093 35.216 32.337 35.024 31.665 34.64C30.993 34.256 30.459 33.716 30.063 33.02C29.679 32.312 29.487 31.484 29.487 30.536C29.487 29.588 29.685 28.766 30.081 28.07C30.477 27.362 31.011 26.816 31.683 26.432C32.367 26.048 33.129 25.856 33.969 25.856C34.809 25.856 35.565 26.048 36.237 26.432C36.909 26.816 37.437 27.362 37.821 28.07C38.217 28.766 38.415 29.588 38.415 30.536C38.415 31.484 38.217 32.312 37.821 33.02C37.425 33.716 36.885 34.256 36.201 34.64C35.529 35.024 34.773 35.216 33.933 35.216ZM33.933 33.92C34.449 33.92 34.929 33.794 35.373 33.542C35.817 33.29 36.177 32.912 36.453 32.408C36.729 31.904 36.867 31.28 36.867 30.536C36.867 29.792 36.729 29.168 36.453 28.664C36.189 28.16 35.835 27.782 35.391 27.53C34.947 27.278 34.473 27.152 33.969 27.152C33.453 27.152 32.973 27.278 32.529 27.53C32.085 27.782 31.725 28.16 31.449 28.664C31.173 29.168 31.035 29.792 31.035 30.536C31.035 31.28 31.173 31.904 31.449 32.408C31.725 32.912 32.079 33.29 32.511 33.542C32.955 33.794 33.429 33.92 33.933 33.92ZM44.5854 35.216C43.7454 35.216 42.9894 35.024 42.3174 34.64C41.6454 34.256 41.1114 33.716 40.7154 33.02C40.3314 32.312 40.1394 31.484 40.1394 30.536C40.1394 29.588 40.3374 28.766 40.7334 28.07C41.1294 27.362 41.6634 26.816 42.3354 26.432C43.0194 26.048 43.7814 25.856 44.6214 25.856C45.4614 25.856 46.2174 26.048 46.8894 26.432C47.5614 26.816 48.0894 27.362 48.4734 28.07C48.8694 28.766 49.0674 29.588 49.0674 30.536C49.0674 31.484 48.8694 32.312 48.4734 33.02C48.0774 33.716 47.5374 34.256 46.8534 34.64C46.1814 35.024 45.4254 35.216 44.5854 35.216ZM44.5854 33.92C45.1014 33.92 45.5814 33.794 46.0254 33.542C46.4694 33.29 46.8294 32.912 47.1054 32.408C47.3814 31.904 47.5194 31.28 47.5194 30.536C47.5194 29.792 47.3814 29.168 47.1054 28.664C46.8414 28.16 46.4874 27.782 46.0434 27.53C45.5994 27.278 45.1254 27.152 44.6214 27.152C44.1054 27.152 43.6254 27.278 43.1814 27.53C42.7374 27.782 42.3774 28.16 42.1014 28.664C41.8254 29.168 41.6874 29.792 41.6874 30.536C41.6874 31.28 41.8254 31.904 42.1014 32.408C42.3774 32.912 42.7314 33.29 43.1634 33.542C43.6074 33.794 44.0814 33.92 44.5854 33.92ZM55.2197 35.216C54.3317 35.216 53.5517 35.012 52.8797 34.604C52.2197 34.196 51.7037 33.638 51.3317 32.93C50.9717 32.222 50.7917 31.418 50.7917 30.518C50.7917 29.618 50.9777 28.82 51.3497 28.124C51.7217 27.416 52.2377 26.864 52.8977 26.468C53.5577 26.06 54.3377 25.856 55.2377 25.856C55.9697 25.856 56.6177 26.006 57.1817 26.306C57.7457 26.606 58.1837 27.026 58.4957 27.566V22.04H60.0077V35H58.6397L58.4957 33.524C58.2077 33.956 57.7937 34.346 57.2537 34.694C56.7137 35.042 56.0357 35.216 55.2197 35.216ZM55.3817 33.902C55.9817 33.902 56.5097 33.764 56.9657 33.488C57.4337 33.2 57.7937 32.804 58.0457 32.3C58.3097 31.796 58.4417 31.208 58.4417 30.536C58.4417 29.864 58.3097 29.276 58.0457 28.772C57.7937 28.268 57.4337 27.878 56.9657 27.602C56.5097 27.314 55.9817 27.17 55.3817 27.17C54.7937 27.17 54.2657 27.314 53.7977 27.602C53.3417 27.878 52.9817 28.268 52.7177 28.772C52.4657 29.276 52.3397 29.864 52.3397 30.536C52.3397 31.208 52.4657 31.796 52.7177 32.3C52.9817 32.804 53.3417 33.2 53.7977 33.488C54.2657 33.764 54.7937 33.902 55.3817 33.902ZM71.3041 35.216C70.4641 35.216 69.7081 35.024 69.0361 34.64C68.3641 34.256 67.8301 33.716 67.4341 33.02C67.0501 32.312 66.8581 31.484 66.8581 30.536C66.8581 29.588 67.0561 28.766 67.4521 28.07C67.8481 27.362 68.3821 26.816 69.0541 26.432C69.7381 26.048 70.5001 25.856 71.3401 25.856C72.1801 25.856 72.9361 26.048 73.6081 26.432C74.2801 26.816 74.8081 27.362 75.1921 28.07C75.5881 28.766 75.7861 29.588 75.7861 30.536C75.7861 31.484 75.5881 32.312 75.1921 33.02C74.7961 33.716 74.2561 34.256 73.5721 34.64C72.9001 35.024 72.1441 35.216 71.3041 35.216ZM71.3041 33.92C71.8201 33.92 72.3001 33.794 72.7441 33.542C73.1881 33.29 73.5481 32.912 73.8241 32.408C74.1001 31.904 74.2381 31.28 74.2381 30.536C74.2381 29.792 74.1001 29.168 73.8241 28.664C73.5601 28.16 73.2061 27.782 72.7621 27.53C72.3181 27.278 71.8441 27.152 71.3401 27.152C70.8241 27.152 70.3441 27.278 69.9001 27.53C69.4561 27.782 69.0961 28.16 68.8201 28.664C68.5441 29.168 68.4061 29.792 68.4061 30.536C68.4061 31.28 68.5441 31.904 68.8201 32.408C69.0961 32.912 69.4501 33.29 69.8821 33.542C70.3261 33.794 70.8001 33.92 71.3041 33.92ZM77.8885 35V26.072H79.2565L79.3465 27.674C79.6345 27.11 80.0485 26.666 80.5885 26.342C81.1285 26.018 81.7405 25.856 82.4245 25.856C83.4805 25.856 84.3205 26.18 84.9445 26.828C85.5805 27.464 85.8985 28.448 85.8985 29.78V35H84.3865V29.942C84.3865 28.082 83.6185 27.152 82.0825 27.152C81.3145 27.152 80.6725 27.434 80.1565 27.998C79.6525 28.55 79.4005 29.342 79.4005 30.374V35H77.8885ZM92.2033 35.216C91.3513 35.216 90.5953 35.024 89.9353 34.64C89.2753 34.244 88.7533 33.698 88.3693 33.002C87.9973 32.306 87.8113 31.484 87.8113 30.536C87.8113 29.6 87.9973 28.784 88.3693 28.088C88.7413 27.38 89.2573 26.834 89.9173 26.45C90.5893 26.054 91.3633 25.856 92.2393 25.856C93.1033 25.856 93.8473 26.054 94.4713 26.45C95.1073 26.834 95.5933 27.344 95.9293 27.98C96.2653 28.616 96.4333 29.3 96.4333 30.032C96.4333 30.164 96.4273 30.296 96.4153 30.428C96.4153 30.56 96.4153 30.71 96.4153 30.878H89.3053C89.3413 31.562 89.4973 32.132 89.7733 32.588C90.0613 33.032 90.4153 33.368 90.8353 33.596C91.2673 33.824 91.7233 33.938 92.2033 33.938C92.8273 33.938 93.3493 33.794 93.7693 33.506C94.1893 33.218 94.4953 32.828 94.6873 32.336H96.1813C95.9413 33.164 95.4793 33.854 94.7953 34.406C94.1233 34.946 93.2593 35.216 92.2033 35.216ZM92.2033 27.134C91.4833 27.134 90.8413 27.356 90.2773 27.8C89.7253 28.232 89.4073 28.868 89.3233 29.708H94.9393C94.9033 28.904 94.6273 28.274 94.1113 27.818C93.5953 27.362 92.9593 27.134 92.2033 27.134ZM97.2313 37.142L98.2753 33.164H99.8413L98.2753 37.142H97.2313ZM106.4 35V22.04H107.912V35H106.4ZM114.404 35.216C113.552 35.216 112.796 35.024 112.136 34.64C111.476 34.244 110.954 33.698 110.57 33.002C110.198 32.306 110.012 31.484 110.012 30.536C110.012 29.6 110.198 28.784 110.57 28.088C110.942 27.38 111.458 26.834 112.118 26.45C112.79 26.054 113.564 25.856 114.44 25.856C115.304 25.856 116.048 26.054 116.672 26.45C117.308 26.834 117.794 27.344 118.13 27.98C118.466 28.616 118.634 29.3 118.634 30.032C118.634 30.164 118.628 30.296 118.616 30.428C118.616 30.56 118.616 30.71 118.616 30.878H111.506C111.542 31.562 111.698 32.132 111.974 32.588C112.262 33.032 112.616 33.368 113.036 33.596C113.468 33.824 113.924 33.938 114.404 33.938C115.028 33.938 115.55 33.794 115.97 33.506C116.39 33.218 116.696 32.828 116.888 32.336H118.382C118.142 33.164 117.68 33.854 116.996 34.406C116.324 34.946 115.46 35.216 114.404 35.216ZM114.404 27.134C113.684 27.134 113.042 27.356 112.478 27.8C111.926 28.232 111.608 28.868 111.524 29.708H117.14C117.104 28.904 116.828 28.274 116.312 27.818C115.796 27.362 115.16 27.134 114.404 27.134ZM123.868 35C123.052 35 122.41 34.802 121.942 34.406C121.474 34.01 121.24 33.296 121.24 32.264V27.35H119.692V26.072H121.24L121.438 23.93H122.752V26.072H125.38V27.35H122.752V32.264C122.752 32.828 122.866 33.212 123.094 33.416C123.322 33.608 123.724 33.704 124.3 33.704H125.236V35H123.868ZM130.721 35.216C129.653 35.216 128.765 34.946 128.057 34.406C127.349 33.866 126.935 33.134 126.815 32.21H128.363C128.459 32.678 128.705 33.086 129.101 33.434C129.509 33.77 130.055 33.938 130.739 33.938C131.375 33.938 131.843 33.806 132.143 33.542C132.443 33.266 132.593 32.942 132.593 32.57C132.593 32.03 132.395 31.67 131.999 31.49C131.615 31.31 131.069 31.148 130.361 31.004C129.881 30.908 129.401 30.77 128.921 30.59C128.441 30.41 128.039 30.158 127.715 29.834C127.391 29.498 127.229 29.06 127.229 28.52C127.229 27.74 127.517 27.104 128.093 26.612C128.681 26.108 129.473 25.856 130.469 25.856C131.417 25.856 132.191 26.096 132.791 26.576C133.403 27.044 133.757 27.716 133.853 28.592H132.359C132.299 28.136 132.101 27.782 131.765 27.53C131.441 27.266 131.003 27.134 130.451 27.134C129.911 27.134 129.491 27.248 129.191 27.476C128.903 27.704 128.759 28.004 128.759 28.376C128.759 28.736 128.945 29.018 129.317 29.222C129.701 29.426 130.217 29.6 130.865 29.744C131.417 29.864 131.939 30.014 132.431 30.194C132.935 30.362 133.343 30.62 133.655 30.968C133.979 31.304 134.141 31.796 134.141 32.444C134.153 33.248 133.847 33.914 133.223 34.442C132.611 34.958 131.777 35.216 130.721 35.216ZM144.592 32.192C144.088 32.192 143.626 32.126 143.206 31.994L142.306 32.84C142.438 32.936 142.6 33.02 142.792 33.092C142.996 33.152 143.284 33.212 143.656 33.272C144.028 33.32 144.55 33.374 145.222 33.434C146.422 33.518 147.28 33.794 147.796 34.262C148.312 34.73 148.57 35.342 148.57 36.098C148.57 36.614 148.426 37.106 148.138 37.574C147.862 38.042 147.43 38.426 146.842 38.726C146.266 39.026 145.522 39.176 144.61 39.176C143.806 39.176 143.092 39.068 142.468 38.852C141.844 38.648 141.358 38.33 141.01 37.898C140.662 37.478 140.488 36.944 140.488 36.296C140.488 35.96 140.578 35.594 140.758 35.198C140.938 34.814 141.274 34.448 141.766 34.1C141.502 33.992 141.274 33.878 141.082 33.758C140.902 33.626 140.734 33.482 140.578 33.326V32.912L142.108 31.4C141.4 30.8 141.046 30.008 141.046 29.024C141.046 28.436 141.184 27.902 141.46 27.422C141.736 26.942 142.138 26.564 142.666 26.288C143.194 26 143.836 25.856 144.592 25.856C145.108 25.856 145.576 25.928 145.996 26.072H149.29V27.206L147.616 27.278C147.964 27.782 148.138 28.364 148.138 29.024C148.138 29.612 147.994 30.146 147.706 30.626C147.43 31.106 147.028 31.49 146.5 31.778C145.984 32.054 145.348 32.192 144.592 32.192ZM144.592 30.95C145.228 30.95 145.732 30.788 146.104 30.464C146.488 30.128 146.68 29.648 146.68 29.024C146.68 28.412 146.488 27.944 146.104 27.62C145.732 27.284 145.228 27.116 144.592 27.116C143.944 27.116 143.428 27.284 143.044 27.62C142.672 27.944 142.486 28.412 142.486 29.024C142.486 29.648 142.672 30.128 143.044 30.464C143.428 30.788 143.944 30.95 144.592 30.95ZM141.964 36.152C141.964 36.752 142.216 37.196 142.72 37.484C143.224 37.784 143.854 37.934 144.61 37.934C145.354 37.934 145.948 37.772 146.392 37.448C146.848 37.124 147.076 36.692 147.076 36.152C147.076 35.768 146.92 35.432 146.608 35.144C146.296 34.868 145.72 34.706 144.88 34.658C144.22 34.61 143.65 34.55 143.17 34.478C142.678 34.742 142.354 35.024 142.198 35.324C142.042 35.636 141.964 35.912 141.964 36.152ZM154.658 35.216C153.806 35.216 153.05 35.024 152.39 34.64C151.73 34.244 151.208 33.698 150.824 33.002C150.452 32.306 150.266 31.484 150.266 30.536C150.266 29.6 150.452 28.784 150.824 28.088C151.196 27.38 151.712 26.834 152.372 26.45C153.044 26.054 153.818 25.856 154.694 25.856C155.558 25.856 156.302 26.054 156.926 26.45C157.562 26.834 158.048 27.344 158.384 27.98C158.72 28.616 158.888 29.3 158.888 30.032C158.888 30.164 158.882 30.296 158.87 30.428C158.87 30.56 158.87 30.71 158.87 30.878H151.76C151.796 31.562 151.952 32.132 152.228 32.588C152.516 33.032 152.87 33.368 153.29 33.596C153.722 33.824 154.178 33.938 154.658 33.938C155.282 33.938 155.804 33.794 156.224 33.506C156.644 33.218 156.95 32.828 157.142 32.336H158.636C158.396 33.164 157.934 33.854 157.25 34.406C156.578 34.946 155.714 35.216 154.658 35.216ZM154.658 27.134C153.938 27.134 153.296 27.356 152.732 27.8C152.18 28.232 151.862 28.868 151.778 29.708H157.394C157.358 28.904 157.082 28.274 156.566 27.818C156.05 27.362 155.414 27.134 154.658 27.134ZM164.122 35C163.306 35 162.664 34.802 162.196 34.406C161.728 34.01 161.494 33.296 161.494 32.264V27.35H159.946V26.072H161.494L161.692 23.93H163.006V26.072H165.634V27.35H163.006V32.264C163.006 32.828 163.12 33.212 163.348 33.416C163.576 33.608 163.978 33.704 164.554 33.704H165.49V35H164.122ZM175.846 35C175.03 35 174.388 34.802 173.92 34.406C173.452 34.01 173.218 33.296 173.218 32.264V27.35H171.67V26.072H173.218L173.416 23.93H174.73V26.072H177.358V27.35H174.73V32.264C174.73 32.828 174.844 33.212 175.072 33.416C175.3 33.608 175.702 33.704 176.278 33.704H177.214V35H175.846ZM183.101 35.216C182.261 35.216 181.505 35.024 180.833 34.64C180.161 34.256 179.627 33.716 179.231 33.02C178.847 32.312 178.655 31.484 178.655 30.536C178.655 29.588 178.853 28.766 179.249 28.07C179.645 27.362 180.179 26.816 180.851 26.432C181.535 26.048 182.297 25.856 183.137 25.856C183.977 25.856 184.733 26.048 185.405 26.432C186.077 26.816 186.605 27.362 186.989 28.07C187.385 28.766 187.583 29.588 187.583 30.536C187.583 31.484 187.385 32.312 186.989 33.02C186.593 33.716 186.053 34.256 185.369 34.64C184.697 35.024 183.941 35.216 183.101 35.216ZM183.101 33.92C183.617 33.92 184.097 33.794 184.541 33.542C184.985 33.29 185.345 32.912 185.621 32.408C185.897 31.904 186.035 31.28 186.035 30.536C186.035 29.792 185.897 29.168 185.621 28.664C185.357 28.16 185.003 27.782 184.559 27.53C184.115 27.278 183.641 27.152 183.137 27.152C182.621 27.152 182.141 27.278 181.697 27.53C181.253 27.782 180.893 28.16 180.617 28.664C180.341 29.168 180.203 29.792 180.203 30.536C180.203 31.28 180.341 31.904 180.617 32.408C180.893 32.912 181.247 33.29 181.679 33.542C182.123 33.794 182.597 33.92 183.101 33.92ZM197.977 35C197.161 35 196.519 34.802 196.051 34.406C195.583 34.01 195.349 33.296 195.349 32.264V27.35H193.801V26.072H195.349L195.547 23.93H196.861V26.072H199.489V27.35H196.861V32.264C196.861 32.828 196.975 33.212 197.203 33.416C197.431 33.608 197.833 33.704 198.409 33.704H199.345V35H197.977ZM204.38 35.216C203.636 35.216 203.018 35.09 202.526 34.838C202.034 34.586 201.668 34.25 201.428 33.83C201.188 33.41 201.068 32.954 201.068 32.462C201.068 31.55 201.416 30.848 202.112 30.356C202.808 29.864 203.756 29.618 204.956 29.618H207.368V29.51C207.368 28.73 207.164 28.142 206.756 27.746C206.348 27.338 205.802 27.134 205.118 27.134C204.53 27.134 204.02 27.284 203.588 27.584C203.168 27.872 202.904 28.298 202.796 28.862H201.248C201.308 28.214 201.524 27.668 201.896 27.224C202.28 26.78 202.754 26.444 203.318 26.216C203.882 25.976 204.482 25.856 205.118 25.856C206.366 25.856 207.302 26.192 207.926 26.864C208.562 27.524 208.88 28.406 208.88 29.51V35H207.53L207.44 33.398C207.188 33.902 206.816 34.334 206.324 34.694C205.844 35.042 205.196 35.216 204.38 35.216ZM204.614 33.938C205.19 33.938 205.682 33.788 206.09 33.488C206.51 33.188 206.828 32.798 207.044 32.318C207.26 31.838 207.368 31.334 207.368 30.806V30.788H205.082C204.194 30.788 203.564 30.944 203.192 31.256C202.832 31.556 202.652 31.934 202.652 32.39C202.652 32.858 202.82 33.236 203.156 33.524C203.504 33.8 203.99 33.938 204.614 33.938ZM211.148 35V22.04H212.66V35H211.148ZM215.138 35V22.04H216.65V29.834L220.304 26.072H222.158L218.198 30.104L222.662 35H220.736L216.65 30.374V35H215.138ZM233.04 35.216C232.2 35.216 231.444 35.024 230.772 34.64C230.1 34.256 229.566 33.716 229.17 33.02C228.786 32.312 228.594 31.484 228.594 30.536C228.594 29.588 228.792 28.766 229.188 28.07C229.584 27.362 230.118 26.816 230.79 26.432C231.474 26.048 232.236 25.856 233.076 25.856C233.916 25.856 234.672 26.048 235.344 26.432C236.016 26.816 236.544 27.362 236.928 28.07C237.324 28.766 237.522 29.588 237.522 30.536C237.522 31.484 237.324 32.312 236.928 33.02C236.532 33.716 235.992 34.256 235.308 34.64C234.636 35.024 233.88 35.216 233.04 35.216ZM233.04 33.92C233.556 33.92 234.036 33.794 234.48 33.542C234.924 33.29 235.284 32.912 235.56 32.408C235.836 31.904 235.974 31.28 235.974 30.536C235.974 29.792 235.836 29.168 235.56 28.664C235.296 28.16 234.942 27.782 234.498 27.53C234.054 27.278 233.58 27.152 233.076 27.152C232.56 27.152 232.08 27.278 231.636 27.53C231.192 27.782 230.832 28.16 230.556 28.664C230.28 29.168 230.142 29.792 230.142 30.536C230.142 31.28 230.28 31.904 230.556 32.408C230.832 32.912 231.186 33.29 231.618 33.542C232.062 33.794 232.536 33.92 233.04 33.92ZM241.742 35L238.358 26.072H239.942L242.624 33.542L245.324 26.072H246.872L243.488 35H241.742ZM252.111 35.216C251.259 35.216 250.503 35.024 249.843 34.64C249.183 34.244 248.661 33.698 248.277 33.002C247.905 32.306 247.719 31.484 247.719 30.536C247.719 29.6 247.905 28.784 248.277 28.088C248.649 27.38 249.165 26.834 249.825 26.45C250.497 26.054 251.271 25.856 252.147 25.856C253.011 25.856 253.755 26.054 254.379 26.45C255.015 26.834 255.501 27.344 255.837 27.98C256.173 28.616 256.341 29.3 256.341 30.032C256.341 30.164 256.335 30.296 256.323 30.428C256.323 30.56 256.323 30.71 256.323 30.878H249.213C249.249 31.562 249.405 32.132 249.681 32.588C249.969 33.032 250.323 33.368 250.743 33.596C251.175 33.824 251.631 33.938 252.111 33.938C252.735 33.938 253.257 33.794 253.677 33.506C254.097 33.218 254.403 32.828 254.595 32.336H256.089C255.849 33.164 255.387 33.854 254.703 34.406C254.031 34.946 253.167 35.216 252.111 35.216ZM252.111 27.134C251.391 27.134 250.749 27.356 250.185 27.8C249.633 28.232 249.315 28.868 249.231 29.708H254.847C254.811 28.904 254.535 28.274 254.019 27.818C253.503 27.362 252.867 27.134 252.111 27.134ZM258.346 35V26.072H259.714L259.84 27.782C260.116 27.194 260.536 26.726 261.1 26.378C261.664 26.03 262.36 25.856 263.188 25.856V27.44H262.774C262.246 27.44 261.76 27.536 261.316 27.728C260.872 27.908 260.518 28.22 260.254 28.664C259.99 29.108 259.858 29.72 259.858 30.5V35H258.346ZM273.716 35.216C272.876 35.216 272.12 35.024 271.448 34.64C270.776 34.256 270.242 33.716 269.846 33.02C269.462 32.312 269.27 31.484 269.27 30.536C269.27 29.588 269.468 28.766 269.864 28.07C270.26 27.362 270.794 26.816 271.466 26.432C272.15 26.048 272.912 25.856 273.752 25.856C274.592 25.856 275.348 26.048 276.02 26.432C276.692 26.816 277.22 27.362 277.604 28.07C278 28.766 278.198 29.588 278.198 30.536C278.198 31.484 278 32.312 277.604 33.02C277.208 33.716 276.668 34.256 275.984 34.64C275.312 35.024 274.556 35.216 273.716 35.216ZM273.716 33.92C274.232 33.92 274.712 33.794 275.156 33.542C275.6 33.29 275.96 32.912 276.236 32.408C276.512 31.904 276.65 31.28 276.65 30.536C276.65 29.792 276.512 29.168 276.236 28.664C275.972 28.16 275.618 27.782 275.174 27.53C274.73 27.278 274.256 27.152 273.752 27.152C273.236 27.152 272.756 27.278 272.312 27.53C271.868 27.782 271.508 28.16 271.232 28.664C270.956 29.168 270.818 29.792 270.818 30.536C270.818 31.28 270.956 31.904 271.232 32.408C271.508 32.912 271.862 33.29 272.294 33.542C272.738 33.794 273.212 33.92 273.716 33.92ZM280.301 35V26.072H281.669L281.759 27.674C282.047 27.11 282.461 26.666 283.001 26.342C283.541 26.018 284.153 25.856 284.837 25.856C285.893 25.856 286.733 26.18 287.357 26.828C287.993 27.464 288.311 28.448 288.311 29.78V35H286.799V29.942C286.799 28.082 286.031 27.152 284.495 27.152C283.727 27.152 283.085 27.434 282.569 27.998C282.065 28.55 281.813 29.342 281.813 30.374V35H280.301ZM16.242 65.96V53.072H17.61L17.754 54.548C18.042 54.116 18.45 53.726 18.978 53.378C19.518 53.03 20.202 52.856 21.03 52.856C21.918 52.856 22.692 53.06 23.352 53.468C24.012 53.876 24.522 54.434 24.882 55.142C25.254 55.85 25.44 56.654 25.44 57.554C25.44 58.454 25.254 59.258 24.882 59.966C24.522 60.662 24.006 61.214 23.334 61.622C22.674 62.018 21.9 62.216 21.012 62.216C20.28 62.216 19.626 62.066 19.05 61.766C18.486 61.466 18.054 61.046 17.754 60.506V65.96H16.242ZM20.85 60.902C21.45 60.902 21.978 60.764 22.434 60.488C22.89 60.2 23.25 59.804 23.514 59.3C23.778 58.796 23.91 58.208 23.91 57.536C23.91 56.864 23.778 56.276 23.514 55.772C23.25 55.268 22.89 54.878 22.434 54.602C21.978 54.314 21.45 54.17 20.85 54.17C20.25 54.17 19.722 54.314 19.266 54.602C18.81 54.878 18.45 55.268 18.186 55.772C17.922 56.276 17.79 56.864 17.79 57.536C17.79 58.208 17.922 58.796 18.186 59.3C18.45 59.804 18.81 60.2 19.266 60.488C19.722 60.764 20.25 60.902 20.85 60.902ZM27.5447 62V49.04H29.0567V54.602C29.3567 54.05 29.7827 53.624 30.3347 53.324C30.8867 53.012 31.4867 52.856 32.1347 52.856C33.1667 52.856 33.9947 53.18 34.6187 53.828C35.2427 54.464 35.5547 55.448 35.5547 56.78V62H34.0607V56.942C34.0607 55.082 33.3107 54.152 31.8107 54.152C31.0307 54.152 30.3767 54.434 29.8487 54.998C29.3207 55.55 29.0567 56.342 29.0567 57.374V62H27.5447ZM41.9135 62.216C41.0735 62.216 40.3175 62.024 39.6455 61.64C38.9735 61.256 38.4395 60.716 38.0435 60.02C37.6595 59.312 37.4675 58.484 37.4675 57.536C37.4675 56.588 37.6655 55.766 38.0615 55.07C38.4575 54.362 38.9915 53.816 39.6635 53.432C40.3475 53.048 41.1095 52.856 41.9495 52.856C42.7895 52.856 43.5455 53.048 44.2175 53.432C44.8895 53.816 45.4175 54.362 45.8015 55.07C46.1975 55.766 46.3955 56.588 46.3955 57.536C46.3955 58.484 46.1975 59.312 45.8015 60.02C45.4055 60.716 44.8655 61.256 44.1815 61.64C43.5095 62.024 42.7535 62.216 41.9135 62.216ZM41.9135 60.92C42.4295 60.92 42.9095 60.794 43.3535 60.542C43.7975 60.29 44.1575 59.912 44.4335 59.408C44.7095 58.904 44.8475 58.28 44.8475 57.536C44.8475 56.792 44.7095 56.168 44.4335 55.664C44.1695 55.16 43.8155 54.782 43.3715 54.53C42.9275 54.278 42.4535 54.152 41.9495 54.152C41.4335 54.152 40.9535 54.278 40.5095 54.53C40.0655 54.782 39.7055 55.16 39.4295 55.664C39.1535 56.168 39.0155 56.792 39.0155 57.536C39.0155 58.28 39.1535 58.904 39.4295 59.408C39.7055 59.912 40.0595 60.29 40.4915 60.542C40.9355 60.794 41.4095 60.92 41.9135 60.92ZM48.4979 62V53.072H49.8659L49.9559 54.674C50.2439 54.11 50.6579 53.666 51.1979 53.342C51.7379 53.018 52.3499 52.856 53.0339 52.856C54.0899 52.856 54.9299 53.18 55.5539 53.828C56.1899 54.464 56.5079 55.448 56.5079 56.78V62H54.9959V56.942C54.9959 55.082 54.2279 54.152 52.6919 54.152C51.9239 54.152 51.2819 54.434 50.7659 54.998C50.2619 55.55 50.0099 56.342 50.0099 57.374V62H48.4979ZM62.8126 62.216C61.9606 62.216 61.2046 62.024 60.5446 61.64C59.8846 61.244 59.3626 60.698 58.9786 60.002C58.6066 59.306 58.4206 58.484 58.4206 57.536C58.4206 56.6 58.6066 55.784 58.9786 55.088C59.3506 54.38 59.8666 53.834 60.5266 53.45C61.1986 53.054 61.9726 52.856 62.8486 52.856C63.7126 52.856 64.4566 53.054 65.0806 53.45C65.7166 53.834 66.2026 54.344 66.5386 54.98C66.8746 55.616 67.0426 56.3 67.0426 57.032C67.0426 57.164 67.0366 57.296 67.0246 57.428C67.0246 57.56 67.0246 57.71 67.0246 57.878H59.9146C59.9506 58.562 60.1066 59.132 60.3826 59.588C60.6706 60.032 61.0246 60.368 61.4446 60.596C61.8766 60.824 62.3326 60.938 62.8126 60.938C63.4366 60.938 63.9586 60.794 64.3786 60.506C64.7986 60.218 65.1046 59.828 65.2966 59.336H66.7906C66.5506 60.164 66.0886 60.854 65.4046 61.406C64.7326 61.946 63.8686 62.216 62.8126 62.216ZM62.8126 54.134C62.0926 54.134 61.4506 54.356 60.8866 54.8C60.3346 55.232 60.0166 55.868 59.9326 56.708H65.5486C65.5126 55.904 65.2366 55.274 64.7206 54.818C64.2046 54.362 63.5686 54.134 62.8126 54.134Z" fill="black"/>
<path d="M18.66 85.144C18.132 85.144 17.68 85.04 17.304 84.832C16.928 84.624 16.628 84.348 16.404 84.004C16.188 83.652 16.056 83.264 16.008 82.84H16.944C17.024 83.296 17.216 83.648 17.52 83.896C17.824 84.144 18.208 84.268 18.672 84.268C19.312 84.268 19.844 83.972 20.268 83.38C20.692 82.78 20.92 81.848 20.952 80.584C20.76 80.96 20.452 81.288 20.028 81.568C19.612 81.84 19.108 81.976 18.516 81.976C18.044 81.976 17.596 81.864 17.172 81.64C16.748 81.416 16.404 81.104 16.14 80.704C15.876 80.296 15.744 79.82 15.744 79.276C15.744 78.804 15.86 78.352 16.092 77.92C16.332 77.488 16.668 77.136 17.1 76.864C17.532 76.592 18.048 76.456 18.648 76.456C19.256 76.456 19.768 76.572 20.184 76.804C20.6 77.028 20.932 77.332 21.18 77.716C21.436 78.1 21.62 78.532 21.732 79.012C21.852 79.484 21.912 79.968 21.912 80.464C21.912 81.392 21.784 82.208 21.528 82.912C21.272 83.608 20.9 84.156 20.412 84.556C19.932 84.948 19.348 85.144 18.66 85.144ZM18.72 81.1C19.096 81.1 19.432 81.016 19.728 80.848C20.024 80.672 20.26 80.44 20.436 80.152C20.612 79.864 20.7 79.552 20.7 79.216C20.7 78.856 20.612 78.536 20.436 78.256C20.26 77.968 20.024 77.744 19.728 77.584C19.432 77.424 19.096 77.344 18.72 77.344C18.344 77.344 18.008 77.424 17.712 77.584C17.416 77.744 17.184 77.968 17.016 78.256C16.848 78.536 16.764 78.86 16.764 79.228C16.764 79.796 16.948 80.252 17.316 80.596C17.692 80.932 18.16 81.1 18.72 81.1ZM23.7346 85.06C23.5346 85.06 23.3666 84.996 23.2306 84.868C23.1026 84.732 23.0386 84.568 23.0386 84.376C23.0386 84.184 23.1026 84.024 23.2306 83.896C23.3666 83.76 23.5346 83.692 23.7346 83.692C23.9266 83.692 24.0866 83.76 24.2146 83.896C24.3506 84.024 24.4186 84.184 24.4186 84.376C24.4186 84.568 24.3506 84.732 24.2146 84.868C24.0866 84.996 23.9266 85.06 23.7346 85.06ZM23.7346 80.272C23.5346 80.272 23.3666 80.208 23.2306 80.08C23.1026 79.944 23.0386 79.78 23.0386 79.588C23.0386 79.396 23.1026 79.236 23.2306 79.108C23.3666 78.972 23.5346 78.904 23.7346 78.904C23.9266 78.904 24.0866 78.972 24.2146 79.108C24.3506 79.236 24.4186 79.396 24.4186 79.588C24.4186 79.78 24.3506 79.944 24.2146 80.08C24.0866 80.208 23.9266 80.272 23.7346 80.272ZM29.1132 85.144C28.3692 85.144 27.7252 84.964 27.1812 84.604C26.6452 84.236 26.2332 83.728 25.9452 83.08C25.6572 82.424 25.5132 81.664 25.5132 80.8C25.5132 79.936 25.6572 79.18 25.9452 78.532C26.2332 77.876 26.6452 77.368 27.1812 77.008C27.7252 76.64 28.3692 76.456 29.1132 76.456C29.8572 76.456 30.4972 76.64 31.0332 77.008C31.5692 77.368 31.9812 77.876 32.2692 78.532C32.5572 79.18 32.7012 79.936 32.7012 80.8C32.7012 81.664 32.5572 82.424 32.2692 83.08C31.9812 83.728 31.5692 84.236 31.0332 84.604C30.4972 84.964 29.8572 85.144 29.1132 85.144ZM29.1132 84.256C29.6012 84.256 30.0372 84.12 30.4212 83.848C30.8132 83.568 31.1172 83.172 31.3332 82.66C31.5572 82.14 31.6692 81.52 31.6692 80.8C31.6692 80.08 31.5572 79.464 31.3332 78.952C31.1172 78.44 30.8132 78.048 30.4212 77.776C30.0372 77.496 29.6012 77.356 29.1132 77.356C28.6172 77.356 28.1772 77.496 27.7932 77.776C27.4092 78.048 27.1052 78.44 26.8812 78.952C26.6572 79.464 26.5452 80.08 26.5452 80.8C26.5452 81.52 26.6572 82.14 26.8812 82.66C27.1052 83.172 27.4092 83.568 27.7932 83.848C28.1772 84.12 28.6172 84.256 29.1132 84.256ZM37.0135 85.144C36.4375 85.144 35.9375 85.04 35.5135 84.832C35.0895 84.624 34.7495 84.34 34.4935 83.98C34.2455 83.612 34.0935 83.196 34.0375 82.732H35.0215C35.1175 83.196 35.3415 83.572 35.6935 83.86C36.0455 84.14 36.4895 84.28 37.0255 84.28C37.4255 84.28 37.7695 84.188 38.0575 84.004C38.3455 83.812 38.5655 83.556 38.7175 83.236C38.8775 82.916 38.9575 82.56 38.9575 82.168C38.9575 81.544 38.7815 81.04 38.4295 80.656C38.0775 80.272 37.6215 80.08 37.0615 80.08C36.5975 80.08 36.2015 80.184 35.8735 80.392C35.5455 80.6 35.3055 80.872 35.1535 81.208H34.1935L34.9135 76.6H39.3175V77.476H35.6935L35.2015 80.032C35.3935 79.8 35.6575 79.608 35.9935 79.456C36.3375 79.304 36.7295 79.228 37.1695 79.228C37.7215 79.228 38.2015 79.356 38.6095 79.612C39.0255 79.868 39.3495 80.216 39.5815 80.656C39.8135 81.096 39.9295 81.596 39.9295 82.156C39.9295 82.692 39.8135 83.188 39.5815 83.644C39.3575 84.1 39.0255 84.464 38.5855 84.736C38.1535 85.008 37.6295 85.144 37.0135 85.144ZM41.4452 87.64V79.048H42.3572L42.4532 80.032C42.6452 79.744 42.9172 79.484 43.2692 79.252C43.6292 79.02 44.0852 78.904 44.6372 78.904C45.2292 78.904 45.7452 79.04 46.1852 79.312C46.6252 79.584 46.9652 79.956 47.2052 80.428C47.4532 80.9 47.5772 81.436 47.5772 82.036C47.5772 82.636 47.4532 83.172 47.2052 83.644C46.9652 84.108 46.6212 84.476 46.1732 84.748C45.7332 85.012 45.2172 85.144 44.6252 85.144C44.1372 85.144 43.7012 85.044 43.3172 84.844C42.9412 84.644 42.6532 84.364 42.4532 84.004V87.64H41.4452ZM44.5172 84.268C44.9172 84.268 45.2692 84.176 45.5732 83.992C45.8772 83.8 46.1172 83.536 46.2932 83.2C46.4692 82.864 46.5572 82.472 46.5572 82.024C46.5572 81.576 46.4692 81.184 46.2932 80.848C46.1172 80.512 45.8772 80.252 45.5732 80.068C45.2692 79.876 44.9172 79.78 44.5172 79.78C44.1172 79.78 43.7652 79.876 43.4612 80.068C43.1572 80.252 42.9172 80.512 42.7412 80.848C42.5652 81.184 42.4772 81.576 42.4772 82.024C42.4772 82.472 42.5652 82.864 42.7412 83.2C42.9172 83.536 43.1572 83.8 43.4612 83.992C43.7652 84.176 44.1172 84.268 44.5172 84.268ZM48.9803 85V79.048H49.8923L49.9643 79.912C50.1563 79.592 50.4123 79.344 50.7323 79.168C51.0523 78.992 51.4123 78.904 51.8123 78.904C52.2843 78.904 52.6883 79 53.0243 79.192C53.3683 79.384 53.6323 79.676 53.8163 80.068C54.0243 79.708 54.3083 79.424 54.6683 79.216C55.0363 79.008 55.4323 78.904 55.8563 78.904C56.5683 78.904 57.1363 79.12 57.5603 79.552C57.9843 79.976 58.1963 80.632 58.1963 81.52V85H57.2003V81.628C57.2003 81.012 57.0763 80.548 56.8283 80.236C56.5803 79.924 56.2243 79.768 55.7603 79.768C55.2803 79.768 54.8803 79.956 54.5603 80.332C54.2483 80.7 54.0923 81.228 54.0923 81.916V85H53.0843V81.628C53.0843 81.012 52.9603 80.548 52.7123 80.236C52.4643 79.924 52.1083 79.768 51.6443 79.768C51.1723 79.768 50.7763 79.956 50.4563 80.332C50.1443 80.7 49.9883 81.228 49.9883 81.916V85H48.9803Z" fill="black" fill-opacity="0.5"/>
</svg>
