<svg width="513" height="99" viewBox="0 0 513 99" fill="none" xmlns="http://www.w3.org/2000/svg">
<rect width="513" height="99" fill="#FFFFFD"/>
<rect x="15" y="15" width="441" height="54" rx="10" fill="#F3F3F3"/>
<g clip-path="url(#clip0_155_2138)">
<path d="M493.45 41.11L471.45 30.11C471.277 30.0238 471.084 29.9892 470.892 30.0105C470.701 30.0318 470.519 30.108 470.37 30.23C470.227 30.3495 470.121 30.5064 470.063 30.6831C470.004 30.8597 469.996 31.0491 470.04 31.23L473 42L470 52.74C469.959 52.8911 469.954 53.0496 469.986 53.2028C470.018 53.356 470.085 53.4997 470.182 53.6223C470.279 53.7448 470.404 53.8428 470.546 53.9084C470.688 53.9741 470.844 54.0054 471 54C471.156 53.9991 471.311 53.9614 471.45 53.89L493.45 42.89C493.614 42.8061 493.751 42.6786 493.847 42.5216C493.943 42.3645 493.994 42.1841 493.994 42C493.994 41.816 493.943 41.6355 493.847 41.4785C493.751 41.3214 493.614 41.1939 493.45 41.11ZM472.55 51.11L474.76 43H484V41H474.76L472.55 32.89L490.76 42L472.55 51.11Z" fill="black"/>
</g>
<g clip-path="url(#clip1_155_2138)">
<path d="M432 40V43C432 44.8565 431.263 46.637 429.95 47.9497C428.637 49.2625 426.857 50 425 50C423.143 50 421.363 49.2625 420.05 47.9497C418.737 46.637 418 44.8565 418 43V40H416V43C416.001 45.2131 416.817 47.3482 418.293 48.9973C419.769 50.6465 421.801 51.6941 424 51.94V54H420V56H430V54H426V51.94C428.199 51.6941 430.231 50.6465 431.707 48.9973C433.183 47.3482 433.999 45.2131 434 43V40H432Z" fill="#BBBBBB"/>
<path d="M425 48C426.326 48 427.598 47.4732 428.536 46.5355C429.473 45.5979 430 44.3261 430 43V33C430 31.6739 429.473 30.4021 428.536 29.4645C427.598 28.5268 426.326 28 425 28C423.674 28 422.402 28.5268 421.464 29.4645C420.527 30.4021 420 31.6739 420 33V43C420 44.3261 420.527 45.5979 421.464 46.5355C422.402 47.4732 423.674 48 425 48ZM422 33C422 32.2044 422.316 31.4413 422.879 30.8787C423.441 30.3161 424.204 30 425 30C425.796 30 426.559 30.3161 427.121 30.8787C427.684 31.4413 428 32.2044 428 33V43C428 43.7956 427.684 44.5587 427.121 45.1213C426.559 45.6839 425.796 46 425 46C424.204 46 423.441 45.6839 422.879 45.1213C422.316 44.5587 422 43.7956 422 43V33Z" fill="#BBBBBB"/>
</g>
<g clip-path="url(#clip2_155_2138)">
<path d="M365.9 44.8999L380.9 29.8999C383.4 27.2999 387.5 27.2999 390.1 29.7999C392.7 32.2999 392.7 36.4999 390.1 38.9999L390 39.0999L387.2 41.9999L385.8 40.5999L388.7 37.6999C390.4 35.9999 390.4 33.0999 388.7 31.3999C387 29.6999 384.1 29.5999 382.4 31.2999C382.4 31.2999 382.4 31.2999 382.3 31.3999L367.4 46.2999C365.6 47.9999 365.6 50.8999 367.3 52.5999C369 54.3999 371.9 54.3999 373.6 52.6999C373.6 52.6999 373.6 52.6999 373.7 52.5999L381.1 45.1999C382.1 44.1999 382 42.5999 381.1 41.6999C380.1 40.7999 378.6 40.7999 377.6 41.6999L373.5 45.7999L372.1 44.3999L376.3 40.1999C378.1 38.4999 380.9 38.5999 382.6 40.3999C384.2 42.0999 384.2 44.7999 382.6 46.5999L375.1 54.0999C372.6 56.6999 368.5 56.6999 365.9 54.1999C363.3 51.6999 363.3 47.4999 365.9 44.8999C365.9 44.9999 365.9 44.8999 365.9 44.8999Z" fill="#BBBBBB"/>
</g>
<path d="M31.332 49V36.4H32.844V49H31.332ZM41.9893 49L39.3793 40.072H40.8913L42.7813 47.074L44.8693 40.072H46.5793L48.6853 47.074L50.5573 40.072H52.0873L49.4773 49H47.9293L45.7333 41.638L43.5373 49H41.9893ZM54.6776 38.092C54.3776 38.092 54.1256 37.996 53.9216 37.804C53.7296 37.6 53.6336 37.348 53.6336 37.048C53.6336 36.76 53.7296 36.52 53.9216 36.328C54.1256 36.136 54.3776 36.04 54.6776 36.04C54.9656 36.04 55.2116 36.136 55.4156 36.328C55.6196 36.52 55.7216 36.76 55.7216 37.048C55.7216 37.348 55.6196 37.6 55.4156 37.804C55.2116 37.996 54.9656 38.092 54.6776 38.092ZM53.9216 49V40.072H55.4336V49H53.9216ZM58.0662 49V36.04H59.5782V49H58.0662ZM62.0565 49V36.04H63.5685V49H62.0565ZM74.3384 46.192C73.8344 46.192 73.3724 46.126 72.9524 45.994L72.0524 46.84C72.1844 46.936 72.3464 47.02 72.5384 47.092C72.7424 47.152 73.0304 47.212 73.4024 47.272C73.7744 47.32 74.2964 47.374 74.9684 47.434C76.1684 47.518 77.0264 47.794 77.5424 48.262C78.0584 48.73 78.3164 49.342 78.3164 50.098C78.3164 50.614 78.1724 51.106 77.8844 51.574C77.6084 52.042 77.1764 52.426 76.5884 52.726C76.0124 53.026 75.2684 53.176 74.3564 53.176C73.5524 53.176 72.8384 53.068 72.2144 52.852C71.5904 52.648 71.1044 52.33 70.7564 51.898C70.4084 51.478 70.2344 50.944 70.2344 50.296C70.2344 49.96 70.3244 49.594 70.5044 49.198C70.6844 48.814 71.0204 48.448 71.5124 48.1C71.2484 47.992 71.0204 47.878 70.8284 47.758C70.6484 47.626 70.4804 47.482 70.3244 47.326V46.912L71.8544 45.4C71.1464 44.8 70.7924 44.008 70.7924 43.024C70.7924 42.436 70.9304 41.902 71.2064 41.422C71.4824 40.942 71.8844 40.564 72.4124 40.288C72.9404 40 73.5824 39.856 74.3384 39.856C74.8544 39.856 75.3224 39.928 75.7424 40.072H79.0364V41.206L77.3624 41.278C77.7104 41.782 77.8844 42.364 77.8844 43.024C77.8844 43.612 77.7404 44.146 77.4524 44.626C77.1764 45.106 76.7744 45.49 76.2464 45.778C75.7304 46.054 75.0944 46.192 74.3384 46.192ZM74.3384 44.95C74.9744 44.95 75.4784 44.788 75.8504 44.464C76.2344 44.128 76.4264 43.648 76.4264 43.024C76.4264 42.412 76.2344 41.944 75.8504 41.62C75.4784 41.284 74.9744 41.116 74.3384 41.116C73.6904 41.116 73.1744 41.284 72.7904 41.62C72.4184 41.944 72.2324 42.412 72.2324 43.024C72.2324 43.648 72.4184 44.128 72.7904 44.464C73.1744 44.788 73.6904 44.95 74.3384 44.95ZM71.7104 50.152C71.7104 50.752 71.9624 51.196 72.4664 51.484C72.9704 51.784 73.6004 51.934 74.3564 51.934C75.1004 51.934 75.6944 51.772 76.1384 51.448C76.5944 51.124 76.8224 50.692 76.8224 50.152C76.8224 49.768 76.6664 49.432 76.3544 49.144C76.0424 48.868 75.4664 48.706 74.6264 48.658C73.9664 48.61 73.3964 48.55 72.9164 48.478C72.4244 48.742 72.1004 49.024 71.9444 49.324C71.7884 49.636 71.7104 49.912 71.7104 50.152ZM81.66 38.092C81.36 38.092 81.108 37.996 80.904 37.804C80.712 37.6 80.616 37.348 80.616 37.048C80.616 36.76 80.712 36.52 80.904 36.328C81.108 36.136 81.36 36.04 81.66 36.04C81.948 36.04 82.194 36.136 82.398 36.328C82.602 36.52 82.704 36.76 82.704 37.048C82.704 37.348 82.602 37.6 82.398 37.804C82.194 37.996 81.948 38.092 81.66 38.092ZM80.904 49V40.072H82.416V49H80.904ZM87.6226 49L84.2386 40.072H85.8226L88.5046 47.542L91.2046 40.072H92.7526L89.3686 49H87.6226ZM97.9923 49.216C97.1403 49.216 96.3843 49.024 95.7243 48.64C95.0643 48.244 94.5423 47.698 94.1583 47.002C93.7863 46.306 93.6003 45.484 93.6003 44.536C93.6003 43.6 93.7863 42.784 94.1583 42.088C94.5303 41.38 95.0463 40.834 95.7063 40.45C96.3783 40.054 97.1523 39.856 98.0283 39.856C98.8923 39.856 99.6363 40.054 100.26 40.45C100.896 40.834 101.382 41.344 101.718 41.98C102.054 42.616 102.222 43.3 102.222 44.032C102.222 44.164 102.216 44.296 102.204 44.428C102.204 44.56 102.204 44.71 102.204 44.878H95.0943C95.1303 45.562 95.2863 46.132 95.5623 46.588C95.8503 47.032 96.2043 47.368 96.6243 47.596C97.0563 47.824 97.5123 47.938 97.9923 47.938C98.6163 47.938 99.1383 47.794 99.5583 47.506C99.9783 47.218 100.284 46.828 100.476 46.336H101.97C101.73 47.164 101.268 47.854 100.584 48.406C99.9123 48.946 99.0483 49.216 97.9923 49.216ZM97.9923 41.134C97.2723 41.134 96.6303 41.356 96.0663 41.8C95.5143 42.232 95.1963 42.868 95.1123 43.708H100.728C100.692 42.904 100.416 42.274 99.9003 41.818C99.3843 41.362 98.7483 41.134 97.9923 41.134ZM109.962 52.96L112.176 48.136H111.654L108.108 40.072H109.746L112.698 47.02L115.83 40.072H117.396L111.546 52.96H109.962ZM122.216 49.216C121.376 49.216 120.62 49.024 119.948 48.64C119.276 48.256 118.742 47.716 118.346 47.02C117.962 46.312 117.77 45.484 117.77 44.536C117.77 43.588 117.968 42.766 118.364 42.07C118.76 41.362 119.294 40.816 119.966 40.432C120.65 40.048 121.412 39.856 122.252 39.856C123.092 39.856 123.848 40.048 124.52 40.432C125.192 40.816 125.72 41.362 126.104 42.07C126.5 42.766 126.698 43.588 126.698 44.536C126.698 45.484 126.5 46.312 126.104 47.02C125.708 47.716 125.168 48.256 124.484 48.64C123.812 49.024 123.056 49.216 122.216 49.216ZM122.216 47.92C122.732 47.92 123.212 47.794 123.656 47.542C124.1 47.29 124.46 46.912 124.736 46.408C125.012 45.904 125.15 45.28 125.15 44.536C125.15 43.792 125.012 43.168 124.736 42.664C124.472 42.16 124.118 41.782 123.674 41.53C123.23 41.278 122.756 41.152 122.252 41.152C121.736 41.152 121.256 41.278 120.812 41.53C120.368 41.782 120.008 42.16 119.732 42.664C119.456 43.168 119.318 43.792 119.318 44.536C119.318 45.28 119.456 45.904 119.732 46.408C120.008 46.912 120.362 47.29 120.794 47.542C121.238 47.794 121.712 47.92 122.216 47.92ZM132.059 49.216C131.003 49.216 130.163 48.898 129.539 48.262C128.915 47.614 128.603 46.624 128.603 45.292V40.072H130.115V45.13C130.115 46.99 130.877 47.92 132.401 47.92C133.181 47.92 133.823 47.644 134.327 47.092C134.843 46.528 135.101 45.73 135.101 44.698V40.072H136.613V49H135.245L135.137 47.398C134.861 47.962 134.447 48.406 133.895 48.73C133.355 49.054 132.743 49.216 132.059 49.216ZM146.835 49.216C146.091 49.216 145.473 49.09 144.981 48.838C144.489 48.586 144.123 48.25 143.883 47.83C143.643 47.41 143.523 46.954 143.523 46.462C143.523 45.55 143.871 44.848 144.567 44.356C145.263 43.864 146.211 43.618 147.411 43.618H149.823V43.51C149.823 42.73 149.619 42.142 149.211 41.746C148.803 41.338 148.257 41.134 147.573 41.134C146.985 41.134 146.475 41.284 146.043 41.584C145.623 41.872 145.359 42.298 145.251 42.862H143.703C143.763 42.214 143.979 41.668 144.351 41.224C144.735 40.78 145.209 40.444 145.773 40.216C146.337 39.976 146.937 39.856 147.573 39.856C148.821 39.856 149.757 40.192 150.381 40.864C151.017 41.524 151.335 42.406 151.335 43.51V49H149.985L149.895 47.398C149.643 47.902 149.271 48.334 148.779 48.694C148.299 49.042 147.651 49.216 146.835 49.216ZM147.069 47.938C147.645 47.938 148.137 47.788 148.545 47.488C148.965 47.188 149.283 46.798 149.499 46.318C149.715 45.838 149.823 45.334 149.823 44.806V44.788H147.537C146.649 44.788 146.019 44.944 145.647 45.256C145.287 45.556 145.107 45.934 145.107 46.39C145.107 46.858 145.275 47.236 145.611 47.524C145.959 47.8 146.445 47.938 147.069 47.938ZM162.471 49.216C161.619 49.216 160.851 49.024 160.167 48.64C159.495 48.244 158.961 47.698 158.565 47.002C158.181 46.294 157.989 45.472 157.989 44.536C157.989 43.6 158.181 42.784 158.565 42.088C158.961 41.38 159.495 40.834 160.167 40.45C160.851 40.054 161.619 39.856 162.471 39.856C163.527 39.856 164.415 40.132 165.135 40.684C165.867 41.236 166.329 41.974 166.521 42.898H164.973C164.853 42.346 164.559 41.92 164.091 41.62C163.623 41.308 163.077 41.152 162.453 41.152C161.949 41.152 161.475 41.278 161.031 41.53C160.587 41.782 160.227 42.16 159.951 42.664C159.675 43.168 159.537 43.792 159.537 44.536C159.537 45.28 159.675 45.904 159.951 46.408C160.227 46.912 160.587 47.296 161.031 47.56C161.475 47.812 161.949 47.938 162.453 47.938C163.077 47.938 163.623 47.788 164.091 47.488C164.559 47.176 164.853 46.738 164.973 46.174H166.521C166.341 47.074 165.885 47.806 165.153 48.37C164.421 48.934 163.527 49.216 162.471 49.216ZM171.603 49.216C170.859 49.216 170.241 49.09 169.749 48.838C169.257 48.586 168.891 48.25 168.651 47.83C168.411 47.41 168.291 46.954 168.291 46.462C168.291 45.55 168.639 44.848 169.335 44.356C170.031 43.864 170.979 43.618 172.179 43.618H174.591V43.51C174.591 42.73 174.387 42.142 173.979 41.746C173.571 41.338 173.025 41.134 172.341 41.134C171.753 41.134 171.243 41.284 170.811 41.584C170.391 41.872 170.127 42.298 170.019 42.862H168.471C168.531 42.214 168.747 41.668 169.119 41.224C169.503 40.78 169.977 40.444 170.541 40.216C171.105 39.976 171.705 39.856 172.341 39.856C173.589 39.856 174.525 40.192 175.149 40.864C175.785 41.524 176.103 42.406 176.103 43.51V49H174.753L174.663 47.398C174.411 47.902 174.039 48.334 173.547 48.694C173.067 49.042 172.419 49.216 171.603 49.216ZM171.837 47.938C172.413 47.938 172.905 47.788 173.313 47.488C173.733 47.188 174.051 46.798 174.267 46.318C174.483 45.838 174.591 45.334 174.591 44.806V44.788H172.305C171.417 44.788 170.787 44.944 170.415 45.256C170.055 45.556 169.875 45.934 169.875 46.39C169.875 46.858 170.043 47.236 170.379 47.524C170.727 47.8 171.213 47.938 171.837 47.938ZM178.371 49V36.04H179.883V49H178.371ZM182.361 49V36.04H183.873V49H182.361ZM194.535 49.216C193.467 49.216 192.579 48.946 191.871 48.406C191.163 47.866 190.749 47.134 190.629 46.21H192.177C192.273 46.678 192.519 47.086 192.915 47.434C193.323 47.77 193.869 47.938 194.553 47.938C195.189 47.938 195.657 47.806 195.957 47.542C196.257 47.266 196.407 46.942 196.407 46.57C196.407 46.03 196.209 45.67 195.813 45.49C195.429 45.31 194.883 45.148 194.175 45.004C193.695 44.908 193.215 44.77 192.735 44.59C192.255 44.41 191.853 44.158 191.529 43.834C191.205 43.498 191.043 43.06 191.043 42.52C191.043 41.74 191.331 41.104 191.907 40.612C192.495 40.108 193.287 39.856 194.283 39.856C195.231 39.856 196.005 40.096 196.605 40.576C197.217 41.044 197.571 41.716 197.667 42.592H196.173C196.113 42.136 195.915 41.782 195.579 41.53C195.255 41.266 194.817 41.134 194.265 41.134C193.725 41.134 193.305 41.248 193.005 41.476C192.717 41.704 192.573 42.004 192.573 42.376C192.573 42.736 192.759 43.018 193.131 43.222C193.515 43.426 194.031 43.6 194.679 43.744C195.231 43.864 195.753 44.014 196.245 44.194C196.749 44.362 197.157 44.62 197.469 44.968C197.793 45.304 197.955 45.796 197.955 46.444C197.967 47.248 197.661 47.914 197.037 48.442C196.425 48.958 195.591 49.216 194.535 49.216ZM204.183 49.216C203.343 49.216 202.587 49.024 201.915 48.64C201.243 48.256 200.709 47.716 200.313 47.02C199.929 46.312 199.737 45.484 199.737 44.536C199.737 43.588 199.935 42.766 200.331 42.07C200.727 41.362 201.261 40.816 201.933 40.432C202.617 40.048 203.379 39.856 204.219 39.856C205.059 39.856 205.815 40.048 206.487 40.432C207.159 40.816 207.687 41.362 208.071 42.07C208.467 42.766 208.665 43.588 208.665 44.536C208.665 45.484 208.467 46.312 208.071 47.02C207.675 47.716 207.135 48.256 206.451 48.64C205.779 49.024 205.023 49.216 204.183 49.216ZM204.183 47.92C204.699 47.92 205.179 47.794 205.623 47.542C206.067 47.29 206.427 46.912 206.703 46.408C206.979 45.904 207.117 45.28 207.117 44.536C207.117 43.792 206.979 43.168 206.703 42.664C206.439 42.16 206.085 41.782 205.641 41.53C205.197 41.278 204.723 41.152 204.219 41.152C203.703 41.152 203.223 41.278 202.779 41.53C202.335 41.782 201.975 42.16 201.699 42.664C201.423 43.168 201.285 43.792 201.285 44.536C201.285 45.28 201.423 45.904 201.699 46.408C201.975 46.912 202.329 47.29 202.761 47.542C203.205 47.794 203.679 47.92 204.183 47.92ZM214.835 49.216C213.995 49.216 213.239 49.024 212.567 48.64C211.895 48.256 211.361 47.716 210.965 47.02C210.581 46.312 210.389 45.484 210.389 44.536C210.389 43.588 210.587 42.766 210.983 42.07C211.379 41.362 211.913 40.816 212.585 40.432C213.269 40.048 214.031 39.856 214.871 39.856C215.711 39.856 216.467 40.048 217.139 40.432C217.811 40.816 218.339 41.362 218.723 42.07C219.119 42.766 219.317 43.588 219.317 44.536C219.317 45.484 219.119 46.312 218.723 47.02C218.327 47.716 217.787 48.256 217.103 48.64C216.431 49.024 215.675 49.216 214.835 49.216ZM214.835 47.92C215.351 47.92 215.831 47.794 216.275 47.542C216.719 47.29 217.079 46.912 217.355 46.408C217.631 45.904 217.769 45.28 217.769 44.536C217.769 43.792 217.631 43.168 217.355 42.664C217.091 42.16 216.737 41.782 216.293 41.53C215.849 41.278 215.375 41.152 214.871 41.152C214.355 41.152 213.875 41.278 213.431 41.53C212.987 41.782 212.627 42.16 212.351 42.664C212.075 43.168 211.937 43.792 211.937 44.536C211.937 45.28 212.075 45.904 212.351 46.408C212.627 46.912 212.981 47.29 213.413 47.542C213.857 47.794 214.331 47.92 214.835 47.92ZM221.42 49V40.072H222.788L222.878 41.674C223.166 41.11 223.58 40.666 224.12 40.342C224.66 40.018 225.272 39.856 225.956 39.856C227.012 39.856 227.852 40.18 228.476 40.828C229.112 41.464 229.43 42.448 229.43 43.78V49H227.918V43.942C227.918 42.082 227.15 41.152 225.614 41.152C224.846 41.152 224.204 41.434 223.688 41.998C223.184 42.55 222.932 43.342 222.932 44.374V49H221.42ZM240.588 49.216C239.664 49.216 238.86 49.048 238.176 48.712C237.492 48.376 236.964 47.908 236.592 47.308C236.22 46.708 236.034 46.012 236.034 45.22H237.618C237.618 45.712 237.732 46.168 237.96 46.588C238.188 46.996 238.518 47.326 238.95 47.578C239.394 47.818 239.94 47.938 240.588 47.938C241.44 47.938 242.1 47.734 242.568 47.326C243.036 46.918 243.27 46.408 243.27 45.796C243.27 45.292 243.162 44.89 242.946 44.59C242.73 44.278 242.436 44.026 242.064 43.834C241.704 43.642 241.284 43.474 240.804 43.33C240.336 43.186 239.844 43.024 239.328 42.844C238.356 42.508 237.636 42.094 237.168 41.602C236.7 41.098 236.466 40.444 236.466 39.64C236.454 38.968 236.61 38.374 236.934 37.858C237.258 37.33 237.714 36.922 238.302 36.634C238.902 36.334 239.61 36.184 240.426 36.184C241.23 36.184 241.926 36.334 242.514 36.634C243.114 36.934 243.576 37.348 243.9 37.876C244.236 38.404 244.41 39.004 244.422 39.676H242.838C242.838 39.328 242.748 38.986 242.568 38.65C242.388 38.302 242.112 38.02 241.74 37.804C241.38 37.588 240.924 37.48 240.372 37.48C239.688 37.468 239.124 37.642 238.68 38.002C238.248 38.362 238.032 38.86 238.032 39.496C238.032 40.036 238.182 40.45 238.482 40.738C238.794 41.026 239.226 41.266 239.778 41.458C240.33 41.638 240.966 41.848 241.686 42.088C242.286 42.304 242.826 42.556 243.306 42.844C243.786 43.132 244.158 43.504 244.422 43.96C244.698 44.416 244.836 44.998 244.836 45.706C244.836 46.306 244.68 46.876 244.368 47.416C244.056 47.944 243.582 48.376 242.946 48.712C242.322 49.048 241.536 49.216 240.588 49.216ZM247.808 38.092C247.508 38.092 247.256 37.996 247.052 37.804C246.86 37.6 246.764 37.348 246.764 37.048C246.764 36.76 246.86 36.52 247.052 36.328C247.256 36.136 247.508 36.04 247.808 36.04C248.096 36.04 248.342 36.136 248.546 36.328C248.75 36.52 248.852 36.76 248.852 37.048C248.852 37.348 248.75 37.6 248.546 37.804C248.342 37.996 248.096 38.092 247.808 38.092ZM247.052 49V40.072H248.564V49H247.052ZM251.197 49V40.072H252.565L252.691 41.782C252.967 41.194 253.387 40.726 253.951 40.378C254.515 40.03 255.211 39.856 256.039 39.856V41.44H255.625C255.097 41.44 254.611 41.536 254.167 41.728C253.723 41.908 253.369 42.22 253.105 42.664C252.841 43.108 252.709 43.72 252.709 44.5V49H251.197Z" fill="black"/>
<defs>
<clipPath id="clip0_155_2138">
<rect width="32" height="32" fill="white" transform="translate(466 26)"/>
</clipPath>
<clipPath id="clip1_155_2138">
<rect width="32" height="32" fill="white" transform="translate(409 26)"/>
</clipPath>
<clipPath id="clip2_155_2138">
<rect width="32" height="32" fill="white" transform="matrix(-1 0 0 1 394 26)"/>
</clipPath>
</defs>
</svg>
