<svg width="513" height="99" viewBox="0 0 513 99" fill="none" xmlns="http://www.w3.org/2000/svg">
<rect width="513" height="99" fill="#FFFFFD"/>
<circle cx="82" cy="50" r="29"/>
<path d="M125.278 56V43.4H127.528L131.794 51.788L136.042 43.4H138.292V56H136.384V46.694L132.532 54.2H131.056L127.186 46.712V56H125.278ZM140.78 56V47.072H142.49L142.652 48.764C142.964 48.176 143.396 47.714 143.948 47.378C144.512 47.03 145.19 46.856 145.982 46.856V48.854H145.46C144.932 48.854 144.458 48.944 144.038 49.124C143.63 49.292 143.3 49.586 143.048 50.006C142.808 50.414 142.688 50.984 142.688 51.716V56H140.78ZM147.653 56.108C147.293 56.108 146.993 55.994 146.753 55.766C146.525 55.526 146.411 55.244 146.411 54.92C146.411 54.584 146.525 54.302 146.753 54.074C146.993 53.834 147.293 53.714 147.653 53.714C148.013 53.714 148.307 53.834 148.535 54.074C148.763 54.302 148.877 54.584 148.877 54.92C148.877 55.244 148.763 55.526 148.535 55.766C148.307 55.994 148.013 56.108 147.653 56.108ZM155.407 56V43.4H157.315V56H155.407ZM163.868 56.216C163.004 56.216 162.242 56.012 161.582 55.604C160.922 55.196 160.406 54.638 160.034 53.93C159.662 53.222 159.476 52.418 159.476 51.518C159.476 50.618 159.662 49.82 160.034 49.124C160.406 48.416 160.922 47.864 161.582 47.468C162.254 47.06 163.022 46.856 163.886 46.856C164.594 46.856 165.212 46.994 165.74 47.27C166.28 47.546 166.7 47.936 167 48.44V43.04H168.908V56H167.198L167 54.614C166.712 55.034 166.316 55.406 165.812 55.73C165.308 56.054 164.66 56.216 163.868 56.216ZM164.21 54.56C165.026 54.56 165.692 54.278 166.208 53.714C166.736 53.15 167 52.424 167 51.536C167 50.636 166.736 49.91 166.208 49.358C165.692 48.794 165.026 48.512 164.21 48.512C163.394 48.512 162.722 48.794 162.194 49.358C161.666 49.91 161.402 50.636 161.402 51.536C161.402 52.124 161.522 52.646 161.762 53.102C162.002 53.558 162.332 53.918 162.752 54.182C163.184 54.434 163.67 54.56 164.21 54.56ZM175.489 56.216C174.637 56.216 173.869 56.024 173.185 55.64C172.513 55.244 171.979 54.698 171.583 54.002C171.187 53.294 170.989 52.472 170.989 51.536C170.989 50.6 171.187 49.784 171.583 49.088C171.991 48.38 172.537 47.834 173.221 47.45C173.905 47.054 174.667 46.856 175.507 46.856C176.359 46.856 177.121 47.054 177.793 47.45C178.477 47.834 179.017 48.38 179.413 49.088C179.821 49.784 180.025 50.6 180.025 51.536C180.025 52.472 179.821 53.294 179.413 54.002C179.017 54.698 178.477 55.244 177.793 55.64C177.109 56.024 176.341 56.216 175.489 56.216ZM175.489 54.578C175.945 54.578 176.365 54.464 176.749 54.236C177.145 54.008 177.463 53.672 177.703 53.228C177.943 52.772 178.063 52.208 178.063 51.536C178.063 50.864 177.943 50.306 177.703 49.862C177.475 49.406 177.163 49.064 176.767 48.836C176.383 48.608 175.963 48.494 175.507 48.494C175.051 48.494 174.625 48.608 174.229 48.836C173.845 49.064 173.533 49.406 173.293 49.862C173.053 50.306 172.933 50.864 172.933 51.536C172.933 52.208 173.053 52.772 173.293 53.228C173.533 53.672 173.845 54.008 174.229 54.236C174.613 54.464 175.033 54.578 175.489 54.578ZM182.089 56V47.072H183.799L183.961 48.764C184.273 48.176 184.705 47.714 185.257 47.378C185.821 47.03 186.499 46.856 187.291 46.856V48.854H186.769C186.241 48.854 185.767 48.944 185.347 49.124C184.939 49.292 184.609 49.586 184.357 50.006C184.117 50.414 183.997 50.984 183.997 51.716V56H182.089ZM192.857 56.216C191.981 56.216 191.201 56.024 190.517 55.64C189.845 55.244 189.317 54.698 188.933 54.002C188.549 53.306 188.357 52.496 188.357 51.572C188.357 50.636 188.543 49.814 188.915 49.106C189.299 48.398 189.827 47.846 190.499 47.45C191.183 47.054 191.975 46.856 192.875 46.856C193.751 46.856 194.513 47.054 195.161 47.45C195.809 47.834 196.313 48.35 196.673 48.998C197.033 49.646 197.213 50.36 197.213 51.14C197.213 51.26 197.207 51.392 197.195 51.536C197.195 51.668 197.189 51.818 197.177 51.986H190.229C190.289 52.85 190.571 53.51 191.075 53.966C191.591 54.41 192.185 54.632 192.857 54.632C193.397 54.632 193.847 54.512 194.207 54.272C194.579 54.02 194.855 53.684 195.035 53.264H196.943C196.703 54.104 196.223 54.806 195.503 55.37C194.795 55.934 193.913 56.216 192.857 56.216ZM192.857 48.422C192.221 48.422 191.657 48.614 191.165 48.998C190.673 49.37 190.373 49.934 190.265 50.69H195.305C195.269 49.994 195.023 49.442 194.567 49.034C194.111 48.626 193.541 48.422 192.857 48.422ZM199.192 56V47.072H200.884L201.028 48.638C201.304 48.086 201.706 47.654 202.234 47.342C202.774 47.018 203.392 46.856 204.088 46.856C205.168 46.856 206.014 47.192 206.626 47.864C207.25 48.536 207.562 49.538 207.562 50.87V56H205.672V51.068C205.672 49.34 204.964 48.476 203.548 48.476C202.84 48.476 202.252 48.728 201.784 49.232C201.328 49.736 201.1 50.456 201.1 51.392V56H199.192ZM210.572 59.96L212.714 55.262H212.192L208.664 47.072H210.734L213.47 53.678L216.332 47.072H218.348L212.588 59.96H210.572ZM220.997 45.38C220.637 45.38 220.337 45.272 220.097 45.056C219.869 44.828 219.755 44.546 219.755 44.21C219.755 43.874 219.869 43.598 220.097 43.382C220.337 43.154 220.637 43.04 220.997 43.04C221.357 43.04 221.651 43.154 221.879 43.382C222.119 43.598 222.239 43.874 222.239 44.21C222.239 44.546 222.119 44.828 221.879 45.056C221.651 45.272 221.357 45.38 220.997 45.38ZM220.043 56V47.072H221.951V56H220.043ZM224.47 56V47.072H226.162L226.306 48.638C226.582 48.086 226.984 47.654 227.512 47.342C228.052 47.018 228.67 46.856 229.366 46.856C230.446 46.856 231.292 47.192 231.904 47.864C232.528 48.536 232.84 49.538 232.84 50.87V56H230.95V51.068C230.95 49.34 230.242 48.476 228.826 48.476C228.118 48.476 227.53 48.728 227.062 49.232C226.606 49.736 226.378 50.456 226.378 51.392V56H224.47ZM238.884 56L243.528 43.4H245.616L250.224 56H248.208L247.128 52.922H241.98L240.9 56H238.884ZM242.52 51.41H246.588L244.554 45.668L242.52 51.41ZM251.909 56V47.072H253.601L253.763 48.332C254.051 47.876 254.429 47.516 254.897 47.252C255.377 46.988 255.929 46.856 256.553 46.856C257.969 46.856 258.953 47.414 259.505 48.53C259.829 48.014 260.261 47.606 260.801 47.306C261.353 47.006 261.947 46.856 262.583 46.856C263.699 46.856 264.575 47.192 265.211 47.864C265.847 48.536 266.165 49.538 266.165 50.87V56H264.257V51.068C264.257 49.34 263.597 48.476 262.277 48.476C261.605 48.476 261.053 48.728 260.621 49.232C260.201 49.736 259.991 50.456 259.991 51.392V56H258.083V51.068C258.083 49.34 257.417 48.476 256.085 48.476C255.425 48.476 254.879 48.728 254.447 49.232C254.027 49.736 253.817 50.456 253.817 51.392V56H251.909ZM271.421 56.216C270.665 56.216 270.041 56.09 269.549 55.838C269.057 55.586 268.691 55.256 268.451 54.848C268.211 54.428 268.091 53.972 268.091 53.48C268.091 52.616 268.427 51.932 269.099 51.428C269.771 50.924 270.731 50.672 271.979 50.672H274.319V50.51C274.319 49.814 274.127 49.292 273.743 48.944C273.371 48.596 272.885 48.422 272.285 48.422C271.757 48.422 271.295 48.554 270.899 48.818C270.515 49.07 270.281 49.448 270.197 49.952H268.289C268.349 49.304 268.565 48.752 268.937 48.296C269.321 47.828 269.801 47.474 270.377 47.234C270.965 46.982 271.607 46.856 272.303 46.856C273.551 46.856 274.517 47.186 275.201 47.846C275.885 48.494 276.227 49.382 276.227 50.51V56H274.571L274.409 54.47C274.157 54.962 273.791 55.376 273.311 55.712C272.831 56.048 272.201 56.216 271.421 56.216ZM271.799 54.668C272.315 54.668 272.747 54.548 273.095 54.308C273.455 54.056 273.731 53.726 273.923 53.318C274.127 52.91 274.253 52.46 274.301 51.968H272.177C271.421 51.968 270.881 52.1 270.557 52.364C270.245 52.628 270.089 52.958 270.089 53.354C270.089 53.762 270.239 54.086 270.539 54.326C270.851 54.554 271.271 54.668 271.799 54.668ZM281.746 56.216C280.666 56.216 279.814 55.88 279.19 55.208C278.578 54.536 278.272 53.534 278.272 52.202V47.072H280.18V52.004C280.18 53.732 280.888 54.596 282.304 54.596C283.012 54.596 283.594 54.344 284.05 53.84C284.506 53.336 284.734 52.616 284.734 51.68V47.072H286.642V56H284.95L284.806 54.434C284.53 54.986 284.122 55.424 283.582 55.748C283.054 56.06 282.442 56.216 281.746 56.216ZM289.069 56V47.072H290.761L290.905 48.638C291.181 48.086 291.583 47.654 292.111 47.342C292.651 47.018 293.269 46.856 293.965 46.856C295.045 46.856 295.891 47.192 296.503 47.864C297.127 48.536 297.439 49.538 297.439 50.87V56H295.549V51.068C295.549 49.34 294.841 48.476 293.425 48.476C292.717 48.476 292.129 48.728 291.661 49.232C291.205 49.736 290.977 50.456 290.977 51.392V56H289.069ZM302.71 56.216C301.954 56.216 301.33 56.09 300.838 55.838C300.346 55.586 299.98 55.256 299.74 54.848C299.5 54.428 299.38 53.972 299.38 53.48C299.38 52.616 299.716 51.932 300.388 51.428C301.06 50.924 302.02 50.672 303.268 50.672H305.608V50.51C305.608 49.814 305.416 49.292 305.032 48.944C304.66 48.596 304.174 48.422 303.574 48.422C303.046 48.422 302.584 48.554 302.188 48.818C301.804 49.07 301.57 49.448 301.486 49.952H299.578C299.638 49.304 299.854 48.752 300.226 48.296C300.61 47.828 301.09 47.474 301.666 47.234C302.254 46.982 302.896 46.856 303.592 46.856C304.84 46.856 305.806 47.186 306.49 47.846C307.174 48.494 307.516 49.382 307.516 50.51V56H305.86L305.698 54.47C305.446 54.962 305.08 55.376 304.6 55.712C304.12 56.048 303.49 56.216 302.71 56.216ZM303.088 54.668C303.604 54.668 304.036 54.548 304.384 54.308C304.744 54.056 305.02 53.726 305.212 53.318C305.416 52.91 305.542 52.46 305.59 51.968H303.466C302.71 51.968 302.17 52.1 301.846 52.364C301.534 52.628 301.378 52.958 301.378 53.354C301.378 53.762 301.528 54.086 301.828 54.326C302.14 54.554 302.56 54.668 303.088 54.668ZM309.741 56V47.072H311.433L311.595 48.332C311.883 47.876 312.261 47.516 312.729 47.252C313.209 46.988 313.761 46.856 314.385 46.856C315.801 46.856 316.785 47.414 317.337 48.53C317.661 48.014 318.093 47.606 318.633 47.306C319.185 47.006 319.779 46.856 320.415 46.856C321.531 46.856 322.407 47.192 323.043 47.864C323.679 48.536 323.997 49.538 323.997 50.87V56H322.089V51.068C322.089 49.34 321.429 48.476 320.109 48.476C319.437 48.476 318.885 48.728 318.453 49.232C318.033 49.736 317.823 50.456 317.823 51.392V56H315.915V51.068C315.915 49.34 315.249 48.476 313.917 48.476C313.257 48.476 312.711 48.728 312.279 49.232C311.859 49.736 311.649 50.456 311.649 51.392V56H309.741Z" fill="black"/>
<g clip-path="url(#clip0_169_28)">
<path d="M18 50L28 40L29.4 41.4L20.8 50L29.4 58.6L28 60L18 50Z" fill="black"/>
</g>
<defs>
<clipPath id="clip0_169_28">
<rect width="32" height="32" fill="white" transform="translate(8 34)"/>
</clipPath>
</defs>
</svg>
